<?xml version="1.0" encoding="UTF-8" standalone="no"?>
<!-- Created with Inkscape (http://www.inkscape.org/) -->

<svg
   width="128"
   height="128"
   viewBox="0 0 128 128"
   version="1.1"
   id="svg5"
   inkscape:version="1.4.3 (0d15f75042, 2025-12-25)"
   sodipodi:docname="app.drey.Warp.svg"
   xml:space="preserve"
   xmlns:inkscape="http://www.inkscape.org/namespaces/inkscape"
   xmlns:sodipodi="http://sodipodi.sourceforge.net/DTD/sodipodi-0.dtd"
   xmlns:xlink="http://www.w3.org/1999/xlink"
   xmlns="http://www.w3.org/2000/svg"
   xmlns:svg="http://www.w3.org/2000/svg"><sodipodi:namedview
     id="namedview7"
     pagecolor="#ffffff"
     bordercolor="#666666"
     borderopacity="1"
     inkscape:pageshadow="2"
     inkscape:pageopacity="0.0"
     inkscape:pagecheckerboard="true"
     inkscape:document-units="px"
     showgrid="false"
     inkscape:showpageshadow="false"
     showborder="true"
     inkscape:snap-page="true"
     inkscape:zoom="4.2356144"
     inkscape:cx="50.169817"
     inkscape:cy="58.196988"
     inkscape:window-width="1728"
     inkscape:window-height="1043"
     inkscape:window-x="0"
     inkscape:window-y="0"
     inkscape:window-maximized="1"
     inkscape:current-layer="layer2"
     inkscape:deskcolor="#d1d1d1" /><defs
     id="defs2"><linearGradient
       id="linearGradient11"
       inkscape:collect="always"><stop
         style="stop-color:#181818;stop-opacity:1;"
         offset="0"
         id="stop11" /><stop
         style="stop-color:#4c4c4c;stop-opacity:1;"
         offset="1"
         id="stop12" /></linearGradient><linearGradient
       inkscape:collect="always"
       id="linearGradient404"><stop
         style="stop-color:#565656;stop-opacity:1;"
         offset="0"
         id="stop400" /><stop
         style="stop-color:#c8c8c8;stop-opacity:1;"
         offset="1"
         id="stop402" /></linearGradient><linearGradient
       y2="236"
       x2="96"
       y1="236"
       x1="32"
       gradientTransform="translate(604.81684,170.58641)"
       gradientUnits="userSpaceOnUse"
       id="linearGradient1099"
       xlink:href="#linearGradient1036" /><linearGradient
       id="linearGradient1036"><stop
         id="stop1032"
         offset="0"
         style="stop-color:#d5d3cf;stop-opacity:1;" /><stop
         id="stop1034"
         offset="1"
         style="stop-color:#f6f5f4;stop-opacity:1" /></linearGradient><radialGradient
       r="32"
       fy="-76"
       fx="-244"
       cy="-76"
       cx="-244"
       gradientTransform="matrix(0.88333331,0,0,0.88333331,-460.35018,463.11973)"
       gradientUnits="userSpaceOnUse"
       id="radialGradient1103"
       xlink:href="#linearGradient1069" /><linearGradient
       id="linearGradient1069"><stop
         id="stop1065"
         offset="0"
         style="stop-color:#d5d3cf;stop-opacity:1" /><stop
         id="stop1067-1"
         offset="1"
         style="stop-color:#949390;stop-opacity:1" /></linearGradient><linearGradient
       gradientUnits="userSpaceOnUse"
       y2="232"
       x2="64"
       y1="262.5"
       x1="64"
       id="linearGradient1027"
       xlink:href="#linearGradient1025"
       gradientTransform="translate(-470.5864,432.81685)" /><linearGradient
       id="linearGradient1025"><stop
         id="stop1021"
         offset="0"
         style="stop-color:#9a9996;stop-opacity:1" /><stop
         id="stop1023"
         offset="1"
         style="stop-color:#77767b;stop-opacity:1" /></linearGradient><inkscape:path-effect
       effect="spiro"
       id="path-effect35304-9"
       is_visible="true" /><clipPath
       clipPathUnits="userSpaceOnUse"
       id="clipPath1609-7"><path
         sodipodi:nodetypes="cccccc"
         inkscape:connector-curvature="0"
         id="path1611-5"
         d="m 252,116 28,-28 v -8 h -36 v 36 z"
         style="fill:#e74747;stroke:none;stroke-width:0.25px;stroke-linecap:butt;stroke-linejoin:miter;stroke-opacity:1" /></clipPath><linearGradient
       inkscape:collect="always"
       id="linearGradient8241"><stop
         style="stop-color:#0a0a0a;stop-opacity:1;"
         offset="0"
         id="stop8237" /><stop
         style="stop-color:#313131;stop-opacity:1;"
         offset="0.05"
         id="stop9349" /><stop
         style="stop-color:#0a0a0a;stop-opacity:1;"
         offset="0.1"
         id="stop21746" /><stop
         style="stop-color:#0a0a0a;stop-opacity:1;"
         offset="0.89999998"
         id="stop21940" /><stop
         style="stop-color:#313131;stop-opacity:1;"
         offset="0.94999999"
         id="stop9351" /><stop
         style="stop-color:#0a0a0a;stop-opacity:1;"
         offset="1"
         id="stop8239" /></linearGradient><radialGradient
       r="32"
       fy="-76"
       fx="-244"
       cy="-76"
       cx="-244"
       gradientTransform="matrix(0.88333331,0,0,0.88333331,-460.35018,463.11973)"
       gradientUnits="userSpaceOnUse"
       id="radialGradient1103-5"
       xlink:href="#linearGradient1069" /><inkscape:path-effect
       effect="spiro"
       id="path-effect35304-9-2"
       is_visible="true" /><clipPath
       clipPathUnits="userSpaceOnUse"
       id="clipPath1609-7-7"><path
         sodipodi:nodetypes="cccccc"
         inkscape:connector-curvature="0"
         id="path1611-5-0"
         d="m 252,116 28,-28 v -8 h -36 v 36 z"
         style="fill:#e74747;stroke:none;stroke-width:0.25px;stroke-linecap:butt;stroke-linejoin:miter;stroke-opacity:1" /></clipPath><clipPath
       clipPathUnits="userSpaceOnUse"
       id="clipPath744"><rect
         style="fill:#1e88e5;fill-opacity:1;stroke-width:0.264583"
         id="rect746"
         width="541.86664"
         height="541.86664"
         x="0"
         y="1.5987212e-14"
         rx="79.375"
         ry="79.375" /></clipPath><clipPath
       clipPathUnits="userSpaceOnUse"
       id="clipPath62"><rect
         style="fill:#1e88e5;fill-opacity:1;stroke-width:0.264583"
         id="rect64"
         width="541.86664"
         height="541.86664"
         x="2.2507105e-05"
         y="-0.42205024"
         rx="79.375"
         ry="79.375" /></clipPath><linearGradient
       inkscape:collect="always"
       xlink:href="#linearGradient8241"
       id="linearGradient8243"
       x1="11.5"
       y1="120.5"
       x2="116.5"
       y2="120.5"
       gradientUnits="userSpaceOnUse" /><radialGradient
       r="32"
       fy="-76"
       fx="-244"
       cy="-76"
       cx="-244"
       gradientTransform="matrix(0.88333331,0,0,0.88333331,-460.35018,463.11973)"
       gradientUnits="userSpaceOnUse"
       id="radialGradient1103-6"
       xlink:href="#linearGradient1069" /><inkscape:path-effect
       effect="spiro"
       id="path-effect35304-9-20"
       is_visible="true" /><clipPath
       clipPathUnits="userSpaceOnUse"
       id="clipPath1609-7-2"><path
         sodipodi:nodetypes="cccccc"
         inkscape:connector-curvature="0"
         id="path1611-5-3"
         d="m 252,116 28,-28 v -8 h -36 v 36 z"
         style="fill:#e74747;stroke:none;stroke-width:0.25px;stroke-linecap:butt;stroke-linejoin:miter;stroke-opacity:1" /></clipPath><radialGradient
       r="32"
       fy="-76"
       fx="-244"
       cy="-76"
       cx="-244"
       gradientTransform="matrix(0.88333331,0,0,0.88333331,-460.35018,463.11973)"
       gradientUnits="userSpaceOnUse"
       id="radialGradient1103-56"
       xlink:href="#linearGradient1069" /><inkscape:path-effect
       effect="spiro"
       id="path-effect35304-9-7"
       is_visible="true" /><clipPath
       clipPathUnits="userSpaceOnUse"
       id="clipPath1609-7-0"><path
         sodipodi:nodetypes="cccccc"
         inkscape:connector-curvature="0"
         id="path1611-5-9"
         d="m 252,116 28,-28 v -8 h -36 v 36 z"
         style="fill:#e74747;stroke:none;stroke-width:0.25px;stroke-linecap:butt;stroke-linejoin:miter;stroke-opacity:1" /></clipPath><clipPath
       clipPathUnits="userSpaceOnUse"
       id="clipPath37"><rect
         style="fill:#1a1a1a;fill-opacity:1;stroke-width:0.264583"
         id="rect39"
         width="541.86664"
         height="541.86664"
         x="-2.6626146e-06"
         y="3.2408705"
         rx="79.375"
         ry="79.375" /></clipPath><clipPath
       clipPathUnits="userSpaceOnUse"
       id="clipPath22042"><rect
         style="fill:#333333;fill-opacity:1;stroke-width:0.0133797"
         id="rect22044"
         width="27.31955"
         height="27.483929"
         x="166.96844"
         y="105.40438"
         rx="4.0018873"
         ry="4.0259666" /></clipPath><clipPath
       clipPathUnits="userSpaceOnUse"
       id="clipPath1039"><rect
         style="fill:#b3b3b3;fill-opacity:1;stroke-width:0.264583"
         id="rect1041"
         width="541.8667"
         height="541.86682"
         x="2.5931527e-05"
         y="-0.00010962487"
         rx="79.375008"
         ry="79.375031" /></clipPath><clipPath
       clipPathUnits="userSpaceOnUse"
       id="clipPath154"><rect
         style="fill:#b3b3b3;fill-opacity:1;stroke-width:0.264583"
         id="rect156"
         width="541.8667"
         height="541.86682"
         x="-2.9218751e-05"
         y="-0.00016368683"
         rx="79.375008"
         ry="79.375031" /></clipPath><linearGradient
       inkscape:collect="always"
       xlink:href="#linearGradient404"
       id="linearGradient406"
       x1="64"
       y1="112.5"
       x2="64"
       y2="7.5"
       gradientUnits="userSpaceOnUse" /><linearGradient
       id="paint0_linear"
       x1="49.9392"
       y1="0.257812"
       x2="49.9392"
       y2="99.7423"
       gradientUnits="userSpaceOnUse"
       gradientTransform="matrix(0.76242929,0,0,0.76242929,26.69079,21.878509)"><stop
         stop-color="white"
         id="stop585" /><stop
         offset="1"
         stop-color="white"
         stop-opacity="0"
         id="stop587" /></linearGradient><linearGradient
       inkscape:collect="always"
       xlink:href="#linearGradient11"
       id="linearGradient12"
       x1="63.999996"
       y1="9.6223326"
       x2="63.999996"
       y2="110.37766"
       gradientUnits="userSpaceOnUse" /><filter
       style="color-interpolation-filters:sRGB;"
       inkscape:label="Drop Shadow"
       id="filter82"
       x="-0.050429993"
       y="-0.039402421"
       width="1.10086"
       height="1.1171128"><feFlood
         result="flood"
         in="SourceGraphic"
         flood-opacity="0.650980"
         flood-color="rgb(0,0,0)"
         id="feFlood81" /><feGaussianBlur
         result="blur"
         in="SourceGraphic"
         stdDeviation="1.500000"
         id="feGaussianBlur81" /><feOffset
         result="offset"
         in="blur"
         dx="0.000000"
         dy="3.500000"
         id="feOffset81" /><feComposite
         result="comp1"
         operator="in"
         in="flood"
         in2="offset"
         id="feComposite81" /><feComposite
         result="comp2"
         operator="over"
         in="SourceGraphic"
         in2="comp1"
         id="feComposite82" /></filter></defs><g
     inkscape:groupmode="layer"
     id="layer2"
     inkscape:label="Layer 1"><rect
       style="fill:url(#linearGradient8243);fill-opacity:1"
       id="rect440"
       width="105"
       height="105"
       x="11.5"
       y="15.5"
       rx="13"
       ry="13" /><rect
       style="fill:url(#linearGradient406);fill-opacity:1"
       id="rect358"
       width="105"
       height="105"
       x="11.5"
       y="7.5"
       rx="13"
       ry="13" /><rect
       style="fill:url(#linearGradient12);fill-opacity:1;stroke-width:0.959575"
       id="rect338"
       width="100.75533"
       height="100.75533"
       x="13.622333"
       y="9.6223326"
       rx="12"
       ry="12" /><g
       id="g79"
       style="filter:url(#filter82)"
       transform="matrix(0.91588065,0,0,0.91588065,5.3836387,5.1943701)"><g
         id="g55"
         transform="matrix(1.0648966,0,0,1.0648966,-8.2670178,-8.6963867)"><path
           style="fill:#13ce91;stroke:none"
           d="m 64.501649,21.785008 c -7.6638,0.512355 -15.47635,1.241836 -22.57442,4.438613 -2.98583,1.34474 -6.4626,3.481305 -7.36875,6.854297 -0.712,2.650329 0.72974,5.180408 2.70001,6.872888 3.36995,2.894827 7.95947,4.307509 12.19355,5.365359 1.49724,0.374071 3.6038,0.397183 4.88065,1.311447 1.03329,0.739866 1.48806,2.200762 1.91526,3.339322 1.10952,2.957029 1.81133,6.067911 2.21618,9.196975 0.76011,5.87476 0.21394,11.877995 -1.45937,17.557883 -0.52909,1.795944 -1.13002,4.713138 -2.80864,5.798213 -1.45114,0.938023 -3.75229,0.99082 -5.41295,1.404037 -4.84947,1.206686 -12.02994,3.358653 -14.01789,8.516286 -2.07999,5.396447 4.02504,9.098662 8.16526,10.822642 10.49089,4.36838 22.95135,4.71651 34.11246,3.6147 6.3124,-0.62314 12.94631,-1.90626 18.56119,-4.9747 2.58384,-1.41203 5.392591,-3.647416 5.735671,-6.787207 0.2709,-2.47914 -1.24033,-4.660618 -3.067901,-6.173979 -3.31686,-2.746603 -7.72522,-4.215827 -11.86476,-5.187863 -1.52549,-0.358211 -3.57344,-0.373755 -4.91129,-1.234835 -1.0358,-0.666672 -1.49982,-2.027635 -1.92437,-3.121848 -1.02451,-2.640521 -1.69705,-5.401117 -2.14768,-8.193638 -1.00041,-6.199535 -0.56987,-12.520595 1.13106,-18.56119 0.52279,-1.856589 1.18873,-5.013277 2.94099,-6.105628 1.38921,-0.866034 3.50612,-0.895709 5.07851,-1.293892 4.94486,-1.252211 12.13404,-3.322222 14.323141,-8.486229 2.04774,-4.830545 -2.841351,-8.477961 -6.631111,-10.314347 -8.75993,-4.244757 -20.14404,-5.300489 -29.7648,-4.657306"
           id="path53" /><path
           style="fill:#9cf8d2;fill-opacity:1;stroke:none"
           d="m 79.216869,103.81109 v 0.16722 l -10.03307,0.83609 c -0.006,-1.10185 -0.42649,-2.82206 0.0817,-3.8284 0.43079,-0.85313 1.80349,-0.68817 2.59417,-0.74364 3.41709,-0.23969 4.61991,1.91781 7.35723,3.56873 z"
           id="path52" /><path
           style="fill:#9cf8d2;fill-opacity:1;stroke:none"
           d="m 66.508269,104.8144 -10.03308,-0.83609 c 2.51653,-1.95664 3.99249,-3.97196 7.35723,-3.73595 0.79393,0.0557 2.16073,-0.10858 2.59679,0.74364 0.51725,1.01088 0.0887,2.72244 0.0791,3.8284"
           id="path51" /><path
           style="fill:#9cf8d2;fill-opacity:1;stroke:none"
           d="m 83.230059,85.584342 c 5.4203,1.303961 12.15137,2.662861 15.38405,7.692024 -5.62459,-0.768775 -12.24585,-2.367699 -15.38405,-7.692024"
           id="path50" /><path
           style="fill:#c2fae3;fill-opacity:1;stroke:none"
           d="m 52.629179,85.584342 c -3.74497,4.844012 -9.54782,7.332604 -15.55126,7.692024 2.8839,-5.124585 10.27503,-6.524831 15.55126,-7.692024"
           id="path49" /><path
           style="fill:#9cf8d2;fill-opacity:1;stroke:none"
           d="m 98.614109,95.784635 c -2.33254,3.628799 -6.56712,5.204615 -10.53473,6.391725 -1.38853,0.41546 -3.04624,1.06615 -4.51488,0.83769 -2.16377,-0.33659 -4.37602,-2.02553 -5.85263,-3.550621 1.23901,-0.333308 2.49411,-0.634507 3.67877,-1.136457 0.69999,-0.296591 1.37968,-0.656165 1.98444,-1.119729 2.16463,-1.659218 2.01152,-3.902953 -0.15997,-5.472029 -2.41258,-1.743276 -5.64436,-2.200436 -8.51316,-2.639296 l -1.00331,-4.682102 c 1.684,0.122142 3.93727,-0.005 5.46279,0.78635 1.11627,0.579073 1.85242,1.806819 2.66815,2.722838 1.16675,1.310197 2.48428,2.479294 3.90875,3.50281 3.73966,2.687019 8.27746,4.2375 12.87578,4.358821"
           id="path48" /><path
           style="fill:#c2fae3;fill-opacity:1;stroke:none"
           d="m 61.993389,84.413816 -1.00331,4.682102 c -2.8688,0.43886 -6.10059,0.89602 -8.51316,2.639296 -2.1715,1.569076 -2.32461,3.812811 -0.15998,5.472029 0.60477,0.463569 1.28445,0.823138 1.98444,1.119729 1.18466,0.501945 2.43977,0.803154 3.67878,1.136457 -1.48713,1.569921 -3.64442,3.217601 -5.85263,3.552081 -1.51983,0.23021 -3.24933,-0.45183 -4.6821,-0.89387 -3.88843,-1.19965 -8.19539,-2.635073 -10.36751,-6.337005 4.54424,-0.272061 8.96228,-1.600297 12.70856,-4.239797 1.48923,-1.049261 2.86429,-2.261183 4.07596,-3.621834 0.81573,-0.916024 1.55189,-2.143765 2.66816,-2.722838 1.5255,-0.791361 3.77879,-0.664208 5.46279,-0.78635"
           id="path47" /><path
           style="fill:#c2fae3;fill-opacity:1;stroke:none"
           d="m 71.190369,84.246598 1.00331,4.514884 h -8.69533 l 1.0033,-4.514884 h 6.68872"
           id="path46" /><path
           style="fill:#6cf5c2;fill-opacity:1;stroke:none"
           d="m 77.879089,82.239983 -4.6821,-0.334436 -0.66887,-4.01323 c 3.1832,0.375419 4.32438,1.332446 5.35097,4.347666"
           id="path45" /><path
           style="fill:#6cf5c2;fill-opacity:1;stroke:none"
           d="m 63.163909,77.892317 -0.66887,4.01323 -4.6821,0.334436 c 1.0647,-3.006054 2.14426,-3.969476 5.35097,-4.347666"
           id="path44" /><path
           style="fill:#6cf5c2;fill-opacity:1;stroke:none"
           d="m 69.852629,77.557881 0.66887,4.180448 h -5.35097 l 0.66887,-4.180448 h 4.01323"
           id="path43" /><path
           style="fill:#6cf5c2;fill-opacity:1;stroke:none"
           d="m 75.705259,75.718484 -3.51158,-0.501654 -0.33444,-3.511576 c 2.94679,0.110701 3.26393,1.362534 3.84602,4.01323"
           id="path42" /><path
           style="fill:#6cf5c2;fill-opacity:1;stroke:none"
           d="m 63.832779,71.705254 -0.33443,3.511576 -3.51158,0.501654 c 0.58207,-2.650696 0.89923,-3.902529 3.84601,-4.01323"
           id="path41" /><path
           style="fill:#6cf5c2;fill-opacity:1;stroke:none"
           d="m 69.183759,71.538036 0.33443,3.344358 h -3.34436 l 0.33444,-3.344358 h 2.67549"
           id="path40" /><path
           style="fill:#6cf5c2;fill-opacity:1;stroke:none"
           d="m 74.367509,65.852626 0.16722,3.344359 -2.8427,-0.167218 -0.16722,-3.177141 h 2.8427"
           id="path39" /><path
           style="fill:#6cf5c2;fill-opacity:1;stroke:none"
           d="m 69.016539,65.852626 v 3.009923 h -2.34105 v -3.009923 h 2.34105"
           id="path38" /><path
           style="fill:#6cf5c2;fill-opacity:1;stroke:none"
           d="m 64.167219,65.852626 -0.16722,3.177141 -2.8427,0.167218 0.16721,-3.344359 h 2.84271"
           id="path37" /><path
           style="fill:#6cf5c2;fill-opacity:1;stroke:none"
           d="m 69.016539,60.167217 v 3.009923 h -2.34105 v -3.009923 h 2.34105"
           id="path36" /><path
           style="fill:#6cf5c2;fill-opacity:1;stroke:none"
           d="m 74.534729,59.832781 -0.16722,3.344359 h -2.8427 l 0.16722,-3.177141 2.8427,-0.167218"
           id="path35" /><path
           style="fill:#6cf5c2;fill-opacity:1;stroke:none"
           d="m 63.999999,59.999999 0.16722,3.177141 h -2.84271 l -0.16721,-3.344359 2.8427,0.167218"
           id="path34" /><path
           style="fill:#6cf5c2;fill-opacity:1;stroke:none"
           d="m 69.518189,54.147372 -0.33443,3.344358 h -2.67549 l -0.33444,-3.344358 h 3.34436"
           id="path33" /><path
           style="fill:#6cf5c2;fill-opacity:1;stroke:none"
           d="m 75.705259,53.311282 c -0.58522,2.664939 -0.9019,3.871165 -3.84602,4.01323 l 0.33444,-3.511576 3.51158,-0.501654"
           id="path32" /><path
           style="fill:#6cf5c2;fill-opacity:1;stroke:none"
           d="m 63.498349,53.812936 0.33443,3.511576 c -2.94678,-0.110691 -3.26394,-1.362544 -3.84601,-4.01323 l 3.51158,0.501654"
           id="path31" /><path
           style="fill:#6cf5c2;fill-opacity:1;stroke:none"
           d="m 70.521499,47.291437 -0.66887,4.180448 h -4.01323 l -0.66887,-4.180448 h 5.35097"
           id="path30" /><path
           style="fill:#6cf5c2;fill-opacity:1;stroke:none"
           d="m 77.879089,46.789783 c -1.06471,3.006065 -2.14426,3.969451 -5.35097,4.347666 0.21246,-1.041815 0.20369,-2.752972 0.99928,-3.54047 0.90166,-0.892489 3.16278,-0.6641 4.35169,-0.807196"
           id="path29" /><path
           style="fill:#6cf5c2;fill-opacity:1;stroke:none"
           d="m 63.163909,51.137449 c -3.2067,-0.378215 -4.28627,-1.341606 -5.35097,-4.347666 1.1889,0.143096 3.45003,-0.08529 4.35169,0.807196 0.79559,0.787503 0.78682,2.498649 0.99928,3.54047"
           id="path28" /><path
           style="fill:#9cf8d2;fill-opacity:1;stroke:none"
           d="m 72.193679,40.268284 -1.00331,4.347666 -2.00661,0.167218 c -0.006,-1.042714 -0.58551,-3.503871 0.40906,-4.196462 0.68348,-0.47596 1.81401,-0.316616 2.60086,-0.318422"
           id="path27" /><path
           style="fill:#9cf8d2;fill-opacity:1;stroke:none"
           d="m 66.508269,44.783168 -2.00662,-0.167218 -1.0033,-4.347666 c 0.7877,0.0018 1.91682,-0.157058 2.60146,0.318422 1.00897,0.700725 0.41766,3.145594 0.40846,4.196462"
           id="path26" /><path
           style="fill:#9cf8d2;fill-opacity:1;stroke:none"
           d="m 98.614109,35.7534 c -3.07515,4.784077 -10.03297,6.747652 -15.38405,7.524807 4.10817,-4.802255 9.2714,-6.787626 15.38405,-7.524807"
           id="path25" /><path
           style="fill:#c2fae3;fill-opacity:1;stroke:none"
           d="m 52.461959,43.278207 c -5.17144,-0.751068 -12.6427,-2.653544 -15.38404,-7.524807 5.93435,0.282058 11.65661,2.808397 15.38404,7.524807"
           id="path24" /><path
           style="fill:#c2fae3;fill-opacity:1;stroke:none"
           d="m 98.614109,33.245131 c -5.27328,0.139136 -10.33404,2.146766 -14.38065,5.518712 -1.71251,1.426996 -3.12914,4.027299 -5.09041,5.028969 -1.50942,0.770898 -3.62493,0.581849 -5.27719,0.823138 0.20187,-1.295357 0.30064,-3.581433 1.40572,-4.459551 0.73295,-0.582421 1.89294,-0.626618 2.7748,-0.82869 2.48563,-0.569566 9.03581,-2.703687 6.4421,-6.382941 -0.30499,-0.432644 -0.69466,-0.801276 -1.1134,-1.122245 -0.65274,-0.500332 -1.39195,-0.879802 -2.15163,-1.188968 -1.13519,-0.461982 -2.33071,-0.749556 -3.51158,-1.067218 1.47182,-1.541484 3.66701,-3.299503 5.85263,-3.614098 1.46968,-0.211543 3.12599,0.436299 4.51488,0.853981 3.96338,1.191908 8.20599,2.816046 10.53473,6.438911"
           id="path23" /><path
           style="fill:#c2fae3;fill-opacity:1;stroke:none"
           d="m 57.980159,29.566337 c -1.18087,0.317657 -2.3764,0.605236 -3.51158,1.067218 -0.75968,0.309161 -1.4989,0.688636 -2.15164,1.188968 -0.41875,0.320974 -0.8084,0.689601 -1.1134,1.122245 -2.59371,3.679249 3.95648,5.81338 6.4421,6.382941 0.91495,0.209655 2.16765,0.249423 2.88656,0.922546 1.02187,0.956777 1.10928,3.061428 1.29397,4.365695 -1.65679,-0.241953 -3.76473,-0.0559 -5.28083,-0.823138 -1.17499,-0.594617 -1.95388,-1.903431 -2.81949,-2.85189 -1.27033,-1.391918 -2.7094,-2.640761 -4.27381,-3.692088 -3.71154,-2.494266 -7.9348,-3.7382 -12.37412,-4.003703 2.13673,-3.720609 6.63671,-5.26666 10.53472,-6.438911 1.3889,-0.417682 3.0452,-1.065514 4.51489,-0.853981 2.18905,0.315065 4.38471,2.064438 5.85263,3.614098"
           id="path22" /><path
           style="fill:#c2fae3;fill-opacity:1;stroke:none"
           d="m 79.216829,24.884235 c -1.54653,1.631778 -3.79051,4.105535 -6.18706,3.989516 -0.964,-0.04667 -2.615,0.115814 -3.43825,-0.450429 -0.87245,-0.600087 -0.8763,-3.301748 0,-3.900299 0.77247,-0.527623 2.06928,-0.238625 2.93662,-0.183573 2.23326,0.141748 4.4561,0.411405 6.68869,0.544785"
           id="path21" /><path
           style="fill:#c2fae3;fill-opacity:1;stroke:none"
           d="m 56.307979,25.051453 c 2.3546,-0.499123 4.79561,-0.573526 7.19028,-0.734289 0.79601,-0.05344 2.04004,-0.299887 2.70291,0.283487 0.44232,0.389274 0.44937,1.084508 0.4621,1.626303 0.066,2.808284 -2.16227,2.722981 -4.50267,2.657809 -2.193,-0.06107 -4.13173,-2.642607 -5.85262,-3.83331"
           id="path20" /><ellipse
           style="fill:#00f2a6;fill-opacity:1;stroke:none;stroke-width:1.87151;stroke-linecap:round;stroke-linejoin:round;stroke-dasharray:none;stroke-opacity:1"
           id="path54"
           cx="67.81575"
           cy="34.523392"
           rx="13.627252"
           ry="3.5689287" /><ellipse
           style="fill:#00f2a6;fill-opacity:1;stroke:none;stroke-width:1.87151;stroke-linecap:round;stroke-linejoin:round;stroke-dasharray:none;stroke-opacity:1"
           id="ellipse55"
           cx="67.81575"
           cy="94.838684"
           rx="13.627252"
           ry="3.5689287" /></g></g></g></svg>
