<?xml version="1.0" encoding="UTF-8" standalone="no"?>
<!-- Created with Inkscape (http://www.inkscape.org/) -->

<svg
   width="128"
   height="128"
   viewBox="0 0 128 128"
   version="1.1"
   id="svg5"
   inkscape:version="1.4.3 (0d15f75042, 2025-12-25)"
   sodipodi:docname="com.calibre_ebook.calibre.svg"
   xml:space="preserve"
   xmlns:inkscape="http://www.inkscape.org/namespaces/inkscape"
   xmlns:sodipodi="http://sodipodi.sourceforge.net/DTD/sodipodi-0.dtd"
   xmlns:xlink="http://www.w3.org/1999/xlink"
   xmlns="http://www.w3.org/2000/svg"
   xmlns:svg="http://www.w3.org/2000/svg"><sodipodi:namedview
     id="namedview7"
     pagecolor="#ffffff"
     bordercolor="#666666"
     borderopacity="1"
     inkscape:pageshadow="2"
     inkscape:pageopacity="0.0"
     inkscape:pagecheckerboard="true"
     inkscape:document-units="px"
     showgrid="false"
     inkscape:showpageshadow="false"
     showborder="true"
     inkscape:snap-page="true"
     inkscape:zoom="14.481547"
     inkscape:cx="66.740108"
     inkscape:cy="48.579065"
     inkscape:window-width="1728"
     inkscape:window-height="1043"
     inkscape:window-x="0"
     inkscape:window-y="0"
     inkscape:window-maximized="1"
     inkscape:current-layer="layer2"
     inkscape:snap-global="true"
     inkscape:snap-bbox="true"
     inkscape:bbox-nodes="true"
     inkscape:snap-bbox-edge-midpoints="true"
     inkscape:snap-bbox-midpoints="true"
     inkscape:bbox-paths="true"
     inkscape:snap-intersection-paths="true"
     inkscape:object-paths="true"
     inkscape:deskcolor="#d1d1d1"
     showguides="true" /><defs
     id="defs2"><inkscape:perspective
       sodipodi:type="inkscape:persp3d"
       inkscape:vp_x="-286.23907 : 143.76529 : 1"
       inkscape:vp_y="0 : 1000 : 0"
       inkscape:vp_z="392.15917 : 322.09193 : 1"
       inkscape:persp3d-origin="143.92482 : -9.376727 : 1"
       id="perspective46" /><inkscape:path-effect
       effect="powerclip"
       id="path-effect5337"
       is_visible="true"
       lpeversion="1"
       inverse="true"
       flatten="false"
       hide_clip="false"
       message="" /><linearGradient
       y2="236"
       x2="96"
       y1="236"
       x1="32"
       gradientTransform="translate(604.81684,170.58641)"
       gradientUnits="userSpaceOnUse"
       id="linearGradient1099"
       xlink:href="#linearGradient1036" /><linearGradient
       id="linearGradient1036"><stop
         id="stop1032"
         offset="0"
         style="stop-color:#d5d3cf;stop-opacity:1;" /><stop
         id="stop1034"
         offset="1"
         style="stop-color:#f6f5f4;stop-opacity:1" /></linearGradient><radialGradient
       r="32"
       fy="-76"
       fx="-244"
       cy="-76"
       cx="-244"
       gradientTransform="matrix(0.88333331,0,0,0.88333331,-460.35018,463.11973)"
       gradientUnits="userSpaceOnUse"
       id="radialGradient1103"
       xlink:href="#linearGradient1069" /><linearGradient
       id="linearGradient1069"><stop
         id="stop1065"
         offset="0"
         style="stop-color:#d5d3cf;stop-opacity:1" /><stop
         id="stop1067-1"
         offset="1"
         style="stop-color:#949390;stop-opacity:1" /></linearGradient><linearGradient
       gradientUnits="userSpaceOnUse"
       y2="232"
       x2="64"
       y1="262.5"
       x1="64"
       id="linearGradient1027"
       xlink:href="#linearGradient1025"
       gradientTransform="translate(-470.5864,432.81685)" /><linearGradient
       id="linearGradient1025"><stop
         id="stop1021"
         offset="0"
         style="stop-color:#9a9996;stop-opacity:1" /><stop
         id="stop1023"
         offset="1"
         style="stop-color:#77767b;stop-opacity:1" /></linearGradient><inkscape:path-effect
       effect="spiro"
       id="path-effect35304-9"
       is_visible="true" /><clipPath
       clipPathUnits="userSpaceOnUse"
       id="clipPath1609-7"><path
         sodipodi:nodetypes="cccccc"
         inkscape:connector-curvature="0"
         id="path1611-5"
         d="m 252,116 28,-28 v -8 h -36 v 36 z"
         style="fill:#e74747;stroke:none;stroke-width:0.25px;stroke-linecap:butt;stroke-linejoin:miter;stroke-opacity:1" /></clipPath><radialGradient
       r="32"
       fy="-76"
       fx="-244"
       cy="-76"
       cx="-244"
       gradientTransform="matrix(0.88333331,0,0,0.88333331,-460.35018,463.11973)"
       gradientUnits="userSpaceOnUse"
       id="radialGradient1103-5"
       xlink:href="#linearGradient1069" /><inkscape:path-effect
       effect="spiro"
       id="path-effect35304-9-2"
       is_visible="true" /><clipPath
       clipPathUnits="userSpaceOnUse"
       id="clipPath1609-7-7"><path
         sodipodi:nodetypes="cccccc"
         inkscape:connector-curvature="0"
         id="path1611-5-0"
         d="m 252,116 28,-28 v -8 h -36 v 36 z"
         style="fill:#e74747;stroke:none;stroke-width:0.25px;stroke-linecap:butt;stroke-linejoin:miter;stroke-opacity:1" /></clipPath><clipPath
       clipPathUnits="userSpaceOnUse"
       id="clipPath744"><rect
         style="fill:#1e88e5;fill-opacity:1;stroke-width:0.264583"
         id="rect746"
         width="541.86664"
         height="541.86664"
         x="0"
         y="1.5987212e-14"
         rx="79.375"
         ry="79.375" /></clipPath><clipPath
       clipPathUnits="userSpaceOnUse"
       id="clipPath62"><rect
         style="fill:#1e88e5;fill-opacity:1;stroke-width:0.264583"
         id="rect64"
         width="541.86664"
         height="541.86664"
         x="2.2507105e-05"
         y="-0.42205024"
         rx="79.375"
         ry="79.375" /></clipPath><radialGradient
       r="32"
       fy="-76"
       fx="-244"
       cy="-76"
       cx="-244"
       gradientTransform="matrix(0.88333331,0,0,0.88333331,-460.35018,463.11973)"
       gradientUnits="userSpaceOnUse"
       id="radialGradient1103-6"
       xlink:href="#linearGradient1069" /><inkscape:path-effect
       effect="spiro"
       id="path-effect35304-9-20"
       is_visible="true" /><clipPath
       clipPathUnits="userSpaceOnUse"
       id="clipPath1609-7-2"><path
         sodipodi:nodetypes="cccccc"
         inkscape:connector-curvature="0"
         id="path1611-5-3"
         d="m 252,116 28,-28 v -8 h -36 v 36 z"
         style="fill:#e74747;stroke:none;stroke-width:0.25px;stroke-linecap:butt;stroke-linejoin:miter;stroke-opacity:1" /></clipPath><clipPath
       clipPathUnits="userSpaceOnUse"
       id="clipPath966"><rect
         style="fill:#999999;fill-opacity:1;stroke-width:0.264583"
         id="rect968"
         width="541.86664"
         height="541.86664"
         x="0"
         y="-2.8421709e-14"
         rx="79.375"
         ry="79.375" /></clipPath><clipPath
       clipPathUnits="userSpaceOnUse"
       id="clipPath402"><rect
         style="fill:#999999;fill-opacity:1;stroke-width:0.264583"
         id="rect404"
         width="541.86664"
         height="541.86664"
         x="1.5908203e-05"
         y="1.5908203e-05"
         rx="79.375"
         ry="79.375" /></clipPath><clipPath
       clipPathUnits="userSpaceOnUse"
       id="clipPath2739"><rect
         style="fill:#999999;fill-opacity:1;stroke-width:0.264583"
         id="rect2741"
         width="541.86664"
         height="541.86664"
         x="-7.8515623e-06"
         y="1.8626168"
         rx="79.375"
         ry="79.375" /></clipPath><clipPath
       clipPathUnits="userSpaceOnUse"
       id="clipPath5331"><g
         aria-label="@"
         id="g5335"
         style="font-size:55.6805px;line-height:1.25;display:block;fill:#75a8ff;fill-opacity:1;stroke-width:1.39201"
         transform="translate(0,2)"><path
           d="m 56.985383,60.163136 q 0,3.887848 1.93033,6.117243 1.93033,2.202207 5.30161,2.202207 3.344093,0 5.247235,-2.229395 1.930329,-2.229395 1.930329,-6.090055 0,-3.806284 -1.957517,-6.035679 -1.957518,-2.256583 -5.274423,-2.256583 -3.289717,0 -5.247234,2.229395 -1.93033,2.229395 -1.93033,6.062867 z m 14.817321,8.129136 q -1.631265,2.093456 -3.751909,3.099402 -2.093456,0.978759 -4.893794,0.978759 -4.676292,0 -7.612568,-3.37128 -2.909089,-3.398468 -2.909089,-8.836017 0,-5.437549 2.936276,-8.836017 2.936277,-3.398468 7.585381,-3.398468 2.800338,0 4.920982,1.033135 2.120644,1.005946 3.724721,3.072215 v -3.561595 h 3.887847 v 20.01018 q 3.969411,-0.598131 6.198806,-3.61597 2.256582,-3.045028 2.256582,-7.857258 0,-2.909089 -0.870007,-5.464737 -0.84282,-2.555648 -2.582836,-4.730667 -2.827525,-3.561595 -6.905687,-5.437549 -4.050974,-1.903142 -8.836017,-1.903142 -3.344092,0 -6.416308,0.897195 -3.072215,0.870008 -5.682238,2.610024 -4.268476,2.77315 -6.688185,7.286315 -2.392522,4.485978 -2.392522,9.733213 0,4.322851 1.549702,8.101947 1.576889,3.779097 4.540353,6.660998 2.854713,2.827525 6.606622,4.295663 3.751909,1.495326 8.020384,1.495326 3.507219,0 6.8785,-1.196261 3.398468,-1.169073 6.225993,-3.37128 l 2.446897,3.01784 q -3.398468,2.637211 -7.422254,4.023786 -3.996598,1.413763 -8.129136,1.413763 -5.029732,0 -9.488522,-1.794391 -4.45879,-1.767204 -7.938822,-5.165672 -3.480031,-3.398468 -5.30161,-7.857258 -1.821579,-4.485978 -1.821579,-9.624461 0,-4.94817 1.848767,-9.434148 1.848767,-4.485977 5.274422,-7.884445 3.507219,-3.452844 8.101948,-5.274423 4.594729,-1.848766 9.733213,-1.848766 5.763801,0 10.684783,2.365333 4.948169,2.365334 8.292262,6.715373 2.039081,2.664399 3.099403,5.79099 1.08751,3.12659 1.08751,6.470683 0,7.150377 -4.322852,11.282914 -4.322851,4.132537 -11.935419,4.295663 z"
           id="path5333"
           style="fill:#75a8ff;fill-opacity:1" /></g></clipPath><mask
       maskUnits="userSpaceOnUse"
       id="mask2399"><g
         aria-label="@"
         id="g2403"
         style="font-size:55.6805px;line-height:1.25;fill:#75a8ff;fill-opacity:1;stroke-width:1.39201"
         transform="translate(0,2)"><path
           d="m 56.985383,60.163136 q 0,3.887848 1.93033,6.117243 1.93033,2.202207 5.30161,2.202207 3.344093,0 5.247235,-2.229395 1.930329,-2.229395 1.930329,-6.090055 0,-3.806284 -1.957517,-6.035679 -1.957518,-2.256583 -5.274423,-2.256583 -3.289717,0 -5.247234,2.229395 -1.93033,2.229395 -1.93033,6.062867 z m 14.817321,8.129136 q -1.631265,2.093456 -3.751909,3.099402 -2.093456,0.978759 -4.893794,0.978759 -4.676292,0 -7.612568,-3.37128 -2.909089,-3.398468 -2.909089,-8.836017 0,-5.437549 2.936276,-8.836017 2.936277,-3.398468 7.585381,-3.398468 2.800338,0 4.920982,1.033135 2.120644,1.005946 3.724721,3.072215 v -3.561595 h 3.887847 v 20.01018 q 3.969411,-0.598131 6.198806,-3.61597 2.256582,-3.045028 2.256582,-7.857258 0,-2.909089 -0.870007,-5.464737 -0.84282,-2.555648 -2.582836,-4.730667 -2.827525,-3.561595 -6.905687,-5.437549 -4.050974,-1.903142 -8.836017,-1.903142 -3.344092,0 -6.416308,0.897195 -3.072215,0.870008 -5.682238,2.610024 -4.268476,2.77315 -6.688185,7.286315 -2.392522,4.485978 -2.392522,9.733213 0,4.322851 1.549702,8.101947 1.576889,3.779097 4.540353,6.660998 2.854713,2.827525 6.606622,4.295663 3.751909,1.495326 8.020384,1.495326 3.507219,0 6.8785,-1.196261 3.398468,-1.169073 6.225993,-3.37128 l 2.446897,3.01784 q -3.398468,2.637211 -7.422254,4.023786 -3.996598,1.413763 -8.129136,1.413763 -5.029732,0 -9.488522,-1.794391 -4.45879,-1.767204 -7.938822,-5.165672 -3.480031,-3.398468 -5.30161,-7.857258 -1.821579,-4.485978 -1.821579,-9.624461 0,-4.94817 1.848767,-9.434148 1.848767,-4.485977 5.274422,-7.884445 3.507219,-3.452844 8.101948,-5.274423 4.594729,-1.848766 9.733213,-1.848766 5.763801,0 10.684783,2.365333 4.948169,2.365334 8.292262,6.715373 2.039081,2.664399 3.099403,5.79099 1.08751,3.12659 1.08751,6.470683 0,7.150377 -4.322852,11.282914 -4.322851,4.132537 -11.935419,4.295663 z"
           id="path2401"
           style="fill:#75a8ff;fill-opacity:1" /></g><path
         id="mask-powermask-path-effect2405_box"
         style="fill:#ffffff;fill-opacity:1"
         d="M 38.938667,34.558228 H 89.060975 V 85.441792 H 38.938667 Z" /></mask><filter
       id="mask-powermask-path-effect2405_inverse"
       inkscape:label="filtermask-powermask-path-effect2405"
       style="color-interpolation-filters:sRGB"
       height="100"
       width="100"
       x="-50"
       y="-50"><feColorMatrix
         id="mask-powermask-path-effect2405_primitive1"
         values="1"
         type="saturate"
         result="fbSourceGraphic" /><feColorMatrix
         id="mask-powermask-path-effect2405_primitive2"
         values="-1 0 0 0 1 0 -1 0 0 1 0 0 -1 0 1 0 0 0 1 0 "
         in="fbSourceGraphic" /></filter><filter
       style="color-interpolation-filters:sRGB;"
       inkscape:label="Drop Shadow"
       id="filter102"
       x="-0.17108517"
       y="-0.046084042"
       width="1.2570458"
       height="1.1586105"><feFlood
         result="flood"
         in="SourceGraphic"
         flood-opacity="0.364706"
         flood-color="rgb(0,0,0)"
         id="feFlood101" /><feGaussianBlur
         result="blur"
         in="SourceGraphic"
         stdDeviation="1.502787"
         id="feGaussianBlur101" /><feOffset
         result="offset"
         in="blur"
         dx="-3.571606"
         dy="5.200000"
         id="feOffset101" /><feComposite
         result="comp1"
         operator="in"
         in="flood"
         in2="offset"
         id="feComposite101" /><feComposite
         result="comp2"
         operator="over"
         in="SourceGraphic"
         in2="comp1"
         id="feComposite102" /></filter><filter
       style="color-interpolation-filters:sRGB"
       inkscape:label="Drop Shadow"
       id="filter183"
       x="-0.014006006"
       y="-0.024181512"
       width="1.0400228"
       height="1.0831043"><feFlood
         result="flood"
         in="SourceGraphic"
         flood-opacity="0.168627"
         flood-color="rgb(0,0,0)"
         id="feFlood181" /><feGaussianBlur
         result="blur"
         in="SourceGraphic"
         stdDeviation="1.502787"
         id="feGaussianBlur181" /><feOffset
         result="offset"
         in="blur"
         dx="3.100000"
         dy="5.200000"
         id="feOffset181" /><feComposite
         result="comp1"
         operator="in"
         in="flood"
         in2="offset"
         id="feComposite182" /><feComposite
         result="comp2"
         operator="over"
         in="SourceGraphic"
         in2="comp1"
         id="feComposite183" /></filter><linearGradient
       inkscape:collect="always"
       xlink:href="#linearGradient79"
       id="linearGradient70"
       gradientUnits="userSpaceOnUse"
       gradientTransform="translate(-31.379243,584.06837)"
       x1="448.59732"
       y1="472.74832"
       x2="707.10864"
       y2="472.74832" /><linearGradient
       id="linearGradient79"
       inkscape:collect="always"><stop
         style="stop-color:#732f21;stop-opacity:1;"
         offset="0"
         id="stop75" /><stop
         style="stop-color:#732f21;stop-opacity:1;"
         offset="0.57984352"
         id="stop76" /><stop
         style="stop-color:#a4422f;stop-opacity:1;"
         offset="0.61859685"
         id="stop77" /><stop
         style="stop-color:#732f21;stop-opacity:1"
         offset="0.65878552"
         id="stop78" /><stop
         style="stop-color:#732f21;stop-opacity:1;"
         offset="1"
         id="stop79" /></linearGradient><inkscape:path-effect
       effect="fillet_chamfer"
       id="path-effect68"
       is_visible="true"
       lpeversion="1"
       nodesatellites_param="F,0,0,1,0,8.6800102,0,1 @ F,0,0,1,0,11.790055,0,1 @ F,0,0,1,0,11.95286,0,1 @ F,0,0,1,0,0,0,1"
       radius="0"
       unit="px"
       method="auto"
       mode="F"
       chamfer_steps="1"
       flexible="false"
       use_knot_distance="true"
       apply_no_radius="true"
       apply_with_radius="true"
       only_selected="false"
       hide_knots="false" /><linearGradient
       inkscape:collect="always"
       xlink:href="#linearGradient159"
       id="linearGradient168"
       gradientUnits="userSpaceOnUse"
       gradientTransform="translate(361.70277,131.56457)"
       x1="257.14001"
       y1="906.3504"
       x2="262.77347"
       y2="912.99707" /><linearGradient
       id="linearGradient159"
       inkscape:collect="always"><stop
         style="stop-color:#d4d4d4;stop-opacity:1;"
         offset="0"
         id="stop159" /><stop
         style="stop-color:#f9f9f9;stop-opacity:1;"
         offset="1"
         id="stop160" /></linearGradient><linearGradient
       inkscape:collect="always"
       xlink:href="#linearGradient28"
       id="linearGradient167"
       gradientUnits="userSpaceOnUse"
       gradientTransform="translate(-31.3792,584.06884)"
       x1="603.51794"
       y1="492.14929"
       x2="616.48376"
       y2="483.05582" /><linearGradient
       id="linearGradient28"
       inkscape:collect="always"><stop
         style="stop-color:#c9c9c9;stop-opacity:0.59086055;"
         offset="0"
         id="stop28" /><stop
         style="stop-color:#c9c9c9;stop-opacity:0;"
         offset="1"
         id="stop29" /></linearGradient><linearGradient
       inkscape:collect="always"
       xlink:href="#linearGradient157"
       id="linearGradient166"
       gradientUnits="userSpaceOnUse"
       gradientTransform="translate(361.70277,131.56457)"
       x1="140.69283"
       y1="936.09558"
       x2="143.90854"
       y2="921.65039" /><linearGradient
       id="linearGradient157"
       inkscape:collect="always"><stop
         style="stop-color:#f9f9f9;stop-opacity:1;"
         offset="0"
         id="stop157" /><stop
         style="stop-color:#d6d6d6;stop-opacity:1;"
         offset="1"
         id="stop158" /></linearGradient><filter
       style="color-interpolation-filters:sRGB"
       inkscape:label="Drop Shadow"
       id="filter181"
       x="-0.014006011"
       y="-0.024181475"
       width="1.0400231"
       height="1.0831041"><feFlood
         result="flood"
         in="SourceGraphic"
         flood-opacity="0.168627"
         flood-color="rgb(0,0,0)"
         id="feFlood179" /><feGaussianBlur
         result="blur"
         in="SourceGraphic"
         stdDeviation="1.502787"
         id="feGaussianBlur179" /><feOffset
         result="offset"
         in="blur"
         dx="3.100000"
         dy="5.200000"
         id="feOffset179" /><feComposite
         result="comp1"
         operator="in"
         in="flood"
         in2="offset"
         id="feComposite180" /><feComposite
         result="comp2"
         operator="over"
         in="SourceGraphic"
         in2="comp1"
         id="feComposite181" /></filter><linearGradient
       inkscape:collect="always"
       xlink:href="#linearGradient98"
       id="linearGradient89"
       gradientUnits="userSpaceOnUse"
       gradientTransform="translate(-41.444867,333.1398)"
       x1="448.59732"
       y1="472.74832"
       x2="707.10864"
       y2="472.74832" /><linearGradient
       id="linearGradient98"
       inkscape:collect="always"><stop
         style="stop-color:#704f92;stop-opacity:1;"
         offset="0"
         id="stop94" /><stop
         style="stop-color:#704f92;stop-opacity:1;"
         offset="0.57984352"
         id="stop95" /><stop
         style="stop-color:#8967ad;stop-opacity:1;"
         offset="0.61859685"
         id="stop96" /><stop
         style="stop-color:#704f92;stop-opacity:1;"
         offset="0.65878552"
         id="stop97" /><stop
         style="stop-color:#704f92;stop-opacity:1;"
         offset="1"
         id="stop98" /></linearGradient><inkscape:path-effect
       effect="fillet_chamfer"
       id="path-effect87"
       is_visible="true"
       lpeversion="1"
       nodesatellites_param="F,0,0,1,0,8.6800102,0,1 @ F,0,0,1,0,11.790055,0,1 @ F,0,0,1,0,11.95286,0,1 @ F,0,0,1,0,0,0,1"
       radius="0"
       unit="px"
       method="auto"
       mode="F"
       chamfer_steps="1"
       flexible="false"
       use_knot_distance="true"
       apply_no_radius="true"
       apply_with_radius="true"
       only_selected="false"
       hide_knots="false" /><linearGradient
       inkscape:collect="always"
       xlink:href="#linearGradient159"
       id="linearGradient164"
       gradientUnits="userSpaceOnUse"
       x1="257.14001"
       y1="906.3504"
       x2="262.77347"
       y2="912.99707"
       gradientTransform="translate(351.63712,-119.40938)" /><linearGradient
       inkscape:collect="always"
       xlink:href="#linearGradient28"
       id="linearGradient163"
       gradientUnits="userSpaceOnUse"
       gradientTransform="translate(-41.444852,333.09489)"
       x1="603.51794"
       y1="492.14929"
       x2="616.48376"
       y2="483.05582" /><linearGradient
       inkscape:collect="always"
       xlink:href="#linearGradient157"
       id="linearGradient162"
       gradientUnits="userSpaceOnUse"
       x1="140.69283"
       y1="936.09558"
       x2="143.90854"
       y2="921.65039"
       gradientTransform="translate(351.63712,-119.40938)" /><filter
       style="color-interpolation-filters:sRGB"
       inkscape:label="Drop Shadow"
       id="filter179"
       x="-0.014006018"
       y="-0.024181503"
       width="1.0400237"
       height="1.0831042"><feFlood
         result="flood"
         in="SourceGraphic"
         flood-opacity="0.168627"
         flood-color="rgb(0,0,0)"
         id="feFlood178" /><feGaussianBlur
         result="blur"
         in="SourceGraphic"
         stdDeviation="1.502787"
         id="feGaussianBlur178" /><feOffset
         result="offset"
         in="blur"
         dx="3.100000"
         dy="5.200000"
         id="feOffset178" /><feComposite
         result="comp1"
         operator="in"
         in="flood"
         in2="offset"
         id="feComposite178" /><feComposite
         result="comp2"
         operator="over"
         in="SourceGraphic"
         in2="comp1"
         id="feComposite179" /></filter><linearGradient
       inkscape:collect="always"
       xlink:href="#linearGradient34"
       id="linearGradient58"
       gradientUnits="userSpaceOnUse"
       x1="448.59732"
       y1="472.74832"
       x2="707.10864"
       y2="472.74832"
       gradientTransform="translate(-393.08197,452.50427)" /><linearGradient
       id="linearGradient34"
       inkscape:collect="always"><stop
         style="stop-color:#2d6eaa;stop-opacity:1;"
         offset="0"
         id="stop35" /><stop
         style="stop-color:#2d6eaa;stop-opacity:1;"
         offset="0.57984352"
         id="stop39" /><stop
         style="stop-color:#5a99d3;stop-opacity:1;"
         offset="0.61859685"
         id="stop37" /><stop
         style="stop-color:#2d6eaa;stop-opacity:1;"
         offset="0.65878552"
         id="stop38" /><stop
         style="stop-color:#2d6eaa;stop-opacity:1;"
         offset="1"
         id="stop36" /></linearGradient><linearGradient
       inkscape:collect="always"
       xlink:href="#linearGradient159"
       id="linearGradient160"
       x1="257.14001"
       y1="906.3504"
       x2="262.77347"
       y2="912.99707"
       gradientUnits="userSpaceOnUse" /><linearGradient
       inkscape:collect="always"
       xlink:href="#linearGradient28"
       id="linearGradient59"
       gradientUnits="userSpaceOnUse"
       x1="603.51794"
       y1="492.14929"
       x2="616.48376"
       y2="483.05582"
       gradientTransform="translate(-393.08197,452.50427)" /><inkscape:path-effect
       effect="fillet_chamfer"
       id="path-effect58"
       is_visible="true"
       lpeversion="1"
       nodesatellites_param="F,0,0,1,0,8.6800102,0,1 @ F,0,0,1,0,11.790055,0,1 @ F,0,0,1,0,11.95286,0,1 @ F,0,0,1,0,0,0,1"
       radius="0"
       unit="px"
       method="auto"
       mode="F"
       chamfer_steps="1"
       flexible="false"
       use_knot_distance="true"
       apply_no_radius="true"
       apply_with_radius="true"
       only_selected="false"
       hide_knots="false" /><linearGradient
       inkscape:collect="always"
       xlink:href="#linearGradient157"
       id="linearGradient158"
       x1="140.69283"
       y1="936.09558"
       x2="143.90854"
       y2="921.65039"
       gradientUnits="userSpaceOnUse" /></defs><g
     inkscape:groupmode="layer"
     id="layer2"
     inkscape:label="Layer 1"><g
       id="g183"
       transform="matrix(0.45022998,0,0,0.45022998,-177.10374,-286.01225)"><g
         id="g177"
         transform="translate(-13.013903,-200.25961)"
         style="filter:url(#filter183)"><path
           id="path60"
           style="fill:url(#linearGradient70);fill-opacity:1;stroke:#672a1d;stroke-width:0.0272954;stroke-linecap:round;stroke-linejoin:round;stroke-opacity:1"
           d="m 538.64516,957.09765 a 20.757117,20.757117 45 0 0 -12.90826,3.79615 l -100.25279,70.9802 -3.41478,-0.7571 c 0,0 -13.90965,24.8714 5.44204,41.907 v 5e-4 l 143.14889,30.2271 a 16.079515,16.079515 0 0 0 13.76092,-3.5021 l 89.39454,-76.2997 a 5.4021085,5.4021085 0 0 0 -2.66392,-9.4449 l -21.92011,-3.4654 24.44502,-20.43239 a 5.4950744,5.4950744 0 0 0 -2.5616,-9.62681 L 541.36696,957.39841 a 20.757117,20.757117 45 0 0 -2.7218,-0.30076 z" /><path
           id="path61"
           style="fill:#b67c6e;fill-opacity:1;stroke:#f0ecdd;stroke-width:0.0261937;stroke-linecap:round;stroke-linejoin:round"
           d="m 652.42604,1007.8694 -64.1103,53.5874 a 24.294844,24.294844 0 0 1 -20.84059,5.0777 l -145.40559,-32.2424 c 0,0 -9.59047,22.228 5.44204,35.5575 l 143.14889,30.2271 a 16.079515,16.079515 0 0 0 13.76092,-3.5022 l 89.39454,-76.2997 a 5.4021085,5.4021085 0 0 0 -2.66392,-9.4449 z" /><path
           id="path65"
           style="fill:#985341;fill-opacity:1;stroke:#f0ecdd;stroke-width:0.0261937;stroke-linecap:round;stroke-linejoin:round"
           transform="rotate(60,-653.31302,473.48894)"
           d="m 360.35512,-320.76718 84.8638,-100.82397 a 5.4950744,5.4950744 15.098262 0 1 9.61748,2.59469 l 19.11026,109.5998 a 24.294844,24.294844 106.30591 0 1 -6.02248,20.58739 l -100.62606,109.80363 -11.7309,-126.47788 a 20.757117,20.757117 107.39417 0 1 4.7879,-15.28366 z"
           sodipodi:nodetypes="ccccc"
           inkscape:path-effect="#path-effect68"
           inkscape:original-d="m 354.76558,-314.12643 98.04561,-116.48485 23.18864,132.98982 -108.70171,118.61582 z" /><path
           id="path164"
           style="fill:url(#linearGradient168);stroke:#f0ecdd;stroke-width:0.0261937;stroke-linecap:round;stroke-linejoin:round"
           d="m 669.30415,993.76211 -74.0177,61.86849 -6.97064,5.8266 a 24.294844,24.294844 0 0 1 -2.56832,1.8753 24.294844,24.294844 0 0 1 -5.1e-4,5e-4 24.294844,24.294844 0 0 1 -2.79105,1.5234 24.294844,24.294844 0 0 1 -5.2e-4,6e-4 24.294844,24.294844 0 0 1 -2.96622,1.1456 24.294844,24.294844 0 0 1 -5.64152,1.0222 24.294844,24.294844 0 0 1 -0.61236,0.066 l -0.0904,0.049 c -0.007,0.023 -4.67394,16.1472 2.54558,29.6214 a 16.079515,16.079515 0 0 0 0.678,-0.1726 16.079515,16.079515 0 0 0 0.78393,-0.2403 16.079515,16.079515 0 0 0 1.1374,-0.4542 16.079515,16.079515 0 0 0 0.70952,-0.3121 16.079515,16.079515 0 0 0 1.17615,-0.6589 16.079515,16.079515 0 0 0 0.55862,-0.3287 16.079515,16.079515 0 0 0 1.59991,-1.1937 l 15.64452,-13.3527 v -5e-4 h 5.2e-4 l 73.38518,-62.636 c -5.32411,-8.3014 -4.39342,-17.3338 -2.56005,-23.64859 z" /><path
           id="path165"
           style="fill:url(#linearGradient167);fill-opacity:1;stroke:#f0ecdd;stroke-width:0.0293306;stroke-linecap:round;stroke-linejoin:round"
           d="m 595.28642,1055.6307 -6.97063,5.8266 a 24.294844,24.294844 0 0 1 -14.57947,5.6332 h -5.2e-4 l -0.091,0.049 c -0.007,0.023 -4.6826,16.1716 2.56005,29.6519 h 0.001 a 16.079515,16.079515 0 0 0 6.62802,-3.391 l 15.64452,-13.3526 v -6e-4 z" /><path
           id="path166"
           style="fill:url(#linearGradient166);stroke:#f0ecdd;stroke-width:0.0261937;stroke-linecap:round;stroke-linejoin:round"
           d="m 424.11601,1034.7461 c -8.37068,18.2082 1.80816,31.9288 1.80816,31.9288 l 14.52108,3.1879 0.17725,-0.084 128.45056,27.1235 a 16.079515,16.079515 0 0 0 7.11739,-0.1416 c -7.21952,-13.4743 -2.55257,-29.5986 -2.54558,-29.6215 l 0.0904,-0.049 a 24.294844,24.294844 0 0 1 -6.26009,-0.5555 l -96.5202,-21.4028 z m 157.11806,59.8476 a 16.079515,16.079515 0 0 1 -0.55862,0.3286 16.079515,16.079515 0 0 0 0.55862,-0.3286 z m -1.73477,0.9875 a 16.079515,16.079515 0 0 1 -0.70952,0.3121 16.079515,16.079515 0 0 0 0.70952,-0.3121 z m -1.84692,0.7664 a 16.079515,16.079515 0 0 1 -0.78393,0.2403 16.079515,16.079515 0 0 0 0.78393,-0.2403 z" /><path
           id="path170"
           style="fill:#a2412e;fill-opacity:0.5;stroke:#f0ecdd;stroke-width:0.0261937;stroke-linecap:round;stroke-linejoin:round"
           d="m 671.2288,1017.9544 -72.74957,62.0934 h -5.1e-4 v 5e-4 l -15.64453,13.3527 a 16.079515,16.079515 0 0 1 -1.5999,1.1937 16.079515,16.079515 0 0 1 -0.55862,0.3292 16.079515,16.079515 0 0 1 -1.17616,0.6588 16.079515,16.079515 0 0 1 -0.70952,0.3122 16.079515,16.079515 0 0 1 -1.13739,0.4537 16.079515,16.079515 0 0 1 -0.78394,0.2403 16.079515,16.079515 0 0 1 -0.67799,0.1726 16.079515,16.079515 0 0 0 -5.2e-4,0 16.079515,16.079515 0 0 1 -7.11688,0.1416 l -128.45055,-27.124 -0.17725,0.084 -14.52108,-3.1879 c 0,0 -4.85458,-6.5442 -5.1015,-16.5908 -0.26858,10.9393 5.1015,18.1783 5.1015,18.1783 l 14.52108,3.1879 0.17725,-0.084 128.45055,27.1245 a 16.079515,16.079515 0 0 0 7.11688,-0.1416 16.079515,16.079515 0 0 0 5.2e-4,0 16.079515,16.079515 0 0 0 0.67799,-0.1726 16.079515,16.079515 0 0 0 0.78394,-0.2403 16.079515,16.079515 0 0 0 1.13739,-0.4542 16.079515,16.079515 0 0 0 0.70952,-0.3116 16.079515,16.079515 0 0 0 1.17616,-0.6594 16.079515,16.079515 0 0 0 0.55862,-0.3287 16.079515,16.079515 0 0 0 1.5999,-1.1942 l 15.64453,-13.3522 v -5e-4 h 5.1e-4 l 73.38519,-62.636 c -0.22267,-0.3472 -0.43445,-0.6959 -0.63562,-1.0454 z" /></g><g
         id="g176"
         transform="translate(5.2916667)"
         style="filter:url(#filter181)"><path
           id="path79"
           style="fill:url(#linearGradient89);fill-opacity:1;stroke:#672a1d;stroke-width:0.0272954;stroke-linecap:round;stroke-linejoin:round;stroke-opacity:1"
           d="m 528.57962,706.16878 a 20.757117,20.757117 45 0 0 -12.90825,3.79615 l -100.25332,70.98068 -3.41426,-0.75706 c 0,0 -13.90964,24.87151 5.44205,41.90701 v 5.1e-4 l 143.14888,30.2271 a 16.079515,16.079515 0 0 0 13.76092,-3.50211 l 89.39454,-76.29974 a 5.4021085,5.4021085 0 0 0 -2.66392,-9.4449 l -21.92062,-3.46542 24.44553,-20.43286 a 5.4950744,5.4950744 0 0 0 -2.5616,-9.62629 L 531.30142,706.46954 a 20.757117,20.757117 45 0 0 -2.7218,-0.30076 z" /><path
           id="path80"
           style="fill:#b099c8;fill-opacity:1;stroke:#f0ecdd;stroke-width:0.0261937;stroke-linecap:round;stroke-linejoin:round"
           d="m 642.36042,756.94077 -64.1103,53.5875 a 24.294844,24.294844 0 0 1 -20.84059,5.0777 l -145.40559,-32.2425 c 0,0 -9.59047,22.2281 5.44204,35.5575 l 143.14889,30.2271 a 16.079515,16.079515 0 0 0 13.76092,-3.5021 l 89.39454,-76.2997 a 5.4021085,5.4021085 0 0 0 -2.66392,-9.4449 z" /><path
           id="path84"
           style="fill:#9677b5;fill-opacity:1;stroke:#f0ecdd;stroke-width:0.0261937;stroke-linecap:round;stroke-linejoin:round"
           transform="rotate(60,-441.03532,339.30758)"
           d="m 360.35512,-320.76718 84.8638,-100.82397 a 5.4950744,5.4950744 15.098262 0 1 9.61748,2.59469 l 19.11026,109.5998 a 24.294844,24.294844 106.30591 0 1 -6.02248,20.58739 l -100.62606,109.80363 -11.7309,-126.47788 a 20.757117,20.757117 107.39417 0 1 4.7879,-15.28366 z"
           sodipodi:nodetypes="ccccc"
           inkscape:path-effect="#path-effect87"
           inkscape:original-d="m 354.76558,-314.12643 98.04561,-116.48485 23.18864,132.98982 -108.70171,118.61582 z" /><path
           id="path160"
           style="fill:url(#linearGradient164);stroke:#f0ecdd;stroke-width:0.0261937;stroke-linecap:round;stroke-linejoin:round"
           d="m 659.2385,742.78812 -74.0177,61.86858 -6.97064,5.82651 a 24.294844,24.294844 0 0 1 -2.56832,1.87534 24.294844,24.294844 0 0 1 -5.1e-4,5.2e-4 24.294844,24.294844 0 0 1 -2.79105,1.52342 24.294844,24.294844 0 0 1 -5.2e-4,5.2e-4 24.294844,24.294844 0 0 1 -2.96622,1.14566 24.294844,24.294844 0 0 1 -5.64152,1.02216 24.294844,24.294844 0 0 1 -0.61236,0.0656 l -0.0904,0.0486 c -0.007,0.0229 -4.67394,16.1472 2.54558,29.62145 a 16.079515,16.079515 0 0 0 0.678,-0.1726 16.079515,16.079515 0 0 0 0.78393,-0.2403 16.079515,16.079515 0 0 0 1.1374,-0.45423 16.079515,16.079515 0 0 0 0.70952,-0.31213 16.079515,16.079515 0 0 0 1.17615,-0.65887 16.079515,16.079515 0 0 0 0.55862,-0.32867 16.079515,16.079515 0 0 0 1.59991,-1.19372 l 15.64452,-13.35268 v -5.1e-4 h 5.2e-4 l 73.38518,-62.63597 c -5.32411,-8.3014 -4.39342,-17.33388 -2.56005,-23.64869 z" /><path
           id="path161"
           style="fill:url(#linearGradient163);fill-opacity:1;stroke:#f0ecdd;stroke-width:0.0293306;stroke-linecap:round;stroke-linejoin:round"
           d="m 585.22077,804.6568 -6.97063,5.82652 a 24.294844,24.294844 0 0 1 -14.57947,5.63325 h -5.2e-4 l -0.091,0.0486 c -0.007,0.0229 -4.6826,16.1716 2.56005,29.65193 h 0.001 a 16.079515,16.079515 0 0 0 6.62802,-3.39101 l 15.64452,-13.35267 v -5.2e-4 z" /><path
           id="path162"
           style="fill:url(#linearGradient162);stroke:#f0ecdd;stroke-width:0.0261937;stroke-linecap:round;stroke-linejoin:round"
           d="m 414.05036,783.77218 c -8.37068,18.20813 1.80816,31.9288 1.80816,31.9288 l 14.52108,3.18792 0.17725,-0.0842 128.45056,27.12343 a 16.079515,16.079515 0 0 0 7.11739,-0.1416 c -7.21952,-13.47426 -2.55257,-29.59858 -2.54558,-29.62146 l 0.0904,-0.0486 a 24.294844,24.294844 0 0 1 -6.26009,-0.55552 l -96.5202,-21.40283 z m 157.11806,59.84755 a 16.079515,16.079515 0 0 1 -0.55862,0.3286 16.079515,16.079515 0 0 0 0.55862,-0.3286 z m -1.73477,0.9875 a 16.079515,16.079515 0 0 1 -0.70952,0.3121 16.079515,16.079515 0 0 0 0.70952,-0.3121 z m -1.84692,0.7664 a 16.079515,16.079515 0 0 1 -0.78393,0.2403 16.079515,16.079515 0 0 0 0.78393,-0.2403 z" /><path
           id="path172"
           style="fill:#8967ad;fill-opacity:0.502792;stroke:#f0ecdd;stroke-width:0.0261937;stroke-linecap:round;stroke-linejoin:round"
           d="m 661.16274,766.97954 -72.74956,62.09337 h -5.2e-4 v 5.2e-4 l -15.64452,13.35267 a 16.079515,16.079515 0 0 1 -1.5999,1.19372 16.079515,16.079515 0 0 1 -0.55862,0.32867 16.079515,16.079515 0 0 1 -1.17616,0.65887 16.079515,16.079515 0 0 1 -0.70952,0.31213 16.079515,16.079515 0 0 1 -1.1374,0.45423 16.079515,16.079515 0 0 1 -0.78393,0.2403 16.079515,16.079515 0 0 1 -0.67799,0.1726 16.079515,16.079515 0 0 1 -7.1174,0.14159 l -128.45055,-27.12341 -0.17726,0.0842 -14.52107,-3.18792 c 0,0 -4.85459,-6.54412 -5.1015,-16.59071 -0.26857,10.93926 5.1015,18.17821 5.1015,18.17821 l 14.52107,3.18792 0.17726,-0.0842 128.45055,27.12341 a 16.079515,16.079515 0 0 0 7.1174,-0.14159 16.079515,16.079515 0 0 0 0.67799,-0.1726 16.079515,16.079515 0 0 0 0.78393,-0.2403 16.079515,16.079515 0 0 0 1.1374,-0.45423 16.079515,16.079515 0 0 0 0.70952,-0.31213 16.079515,16.079515 0 0 0 1.17616,-0.65887 16.079515,16.079515 0 0 0 0.55862,-0.32867 16.079515,16.079515 0 0 0 1.5999,-1.19372 l 15.64452,-13.35267 v -5.2e-4 h 5.2e-4 l 73.38518,-62.63597 c -0.22265,-0.34716 -0.43445,-0.69543 -0.63562,-1.0449 z" /></g><g
         id="g178"
         transform="translate(341.21645,-157.67792)"
         style="filter:url(#filter179)"><path
           id="path49"
           style="fill:url(#linearGradient58);fill-opacity:1;stroke:#f0ecdd;stroke-width:0.0272954;stroke-linecap:round;stroke-linejoin:round"
           d="m 176.94217,825.53359 a 20.757117,20.757117 45 0 0 -12.90774,3.79615 L 63.781637,900.3099 60.366858,899.55284 c 0,0 -13.909645,24.87149 5.442045,41.90701 v 5.1e-4 l 143.148887,30.2271 a 16.079515,16.079515 0 0 0 13.76092,-3.50211 l 89.39454,-76.29974 a 5.4021085,5.4021085 0 0 0 -2.66392,-9.4449 l -21.92063,-3.46542 24.44554,-20.43286 a 5.4950744,5.4950744 0 0 0 -2.56212,-9.62629 L 179.66449,825.83435 a 20.757117,20.757117 45 0 0 -2.72232,-0.30076 z" /><path
           id="path50"
           style="fill:#90bae1;fill-opacity:1;stroke:#f0ecdd;stroke-width:0.0261937;stroke-linecap:round;stroke-linejoin:round"
           d="m 290.72332,876.30528 -64.1103,53.58742 a 24.294844,24.294844 0 0 1 -20.84059,5.07773 L 60.36684,902.72795 c 0,0 -9.59047,22.22805 5.44204,35.55752 l 143.14889,30.2271 a 16.079515,16.079515 0 0 0 13.76092,-3.50212 l 89.39454,-76.29973 a 5.4021085,5.4021085 0 0 0 -2.66392,-9.4449 z" /><path
           id="path51"
           style="fill:url(#linearGradient160);stroke:#f0ecdd;stroke-width:0.0261937;stroke-linecap:round;stroke-linejoin:round"
           d="m 307.60138,862.1975 -74.0177,61.86858 -6.97064,5.82651 a 24.294844,24.294844 0 0 1 -2.56832,1.87534 24.294844,24.294844 0 0 1 -5.1e-4,5.2e-4 24.294844,24.294844 0 0 1 -2.79105,1.52342 24.294844,24.294844 0 0 1 -5.2e-4,5.2e-4 24.294844,24.294844 0 0 1 -2.96622,1.14566 24.294844,24.294844 0 0 1 -5.64152,1.02216 24.294844,24.294844 0 0 1 -0.61236,0.0656 l -0.0904,0.0486 c -0.007,0.0229 -4.67394,16.1472 2.54558,29.62145 a 16.079515,16.079515 0 0 0 0.678,-0.1726 16.079515,16.079515 0 0 0 0.78393,-0.2403 16.079515,16.079515 0 0 0 1.1374,-0.45423 16.079515,16.079515 0 0 0 0.70952,-0.31213 16.079515,16.079515 0 0 0 1.17615,-0.65887 16.079515,16.079515 0 0 0 0.55862,-0.32867 16.079515,16.079515 0 0 0 1.59991,-1.19372 l 15.64452,-13.35268 v -5.1e-4 h 5.2e-4 l 73.38518,-62.63597 c -5.32411,-8.3014 -4.39342,-17.33388 -2.56005,-23.64869 z" /><path
           id="path52"
           style="fill:url(#linearGradient59);fill-opacity:1;stroke:#f0ecdd;stroke-width:0.0293306;stroke-linecap:round;stroke-linejoin:round"
           d="m 233.58365,924.06618 -6.97063,5.82652 a 24.294844,24.294844 0 0 1 -14.57947,5.63325 h -5.2e-4 l -0.091,0.0486 c -0.007,0.0229 -4.6826,16.1716 2.56005,29.65193 h 0.001 a 16.079515,16.079515 0 0 0 6.62802,-3.39101 l 15.64452,-13.35267 v -5.2e-4 z" /><path
           id="path54"
           style="fill:#629ed5;fill-opacity:1;stroke:#f0ecdd;stroke-width:0.0261937;stroke-linecap:round;stroke-linejoin:round"
           transform="rotate(60,-720.22653,94.463147)"
           d="m 360.35512,-320.76718 84.8638,-100.82397 a 5.4950744,5.4950744 15.098262 0 1 9.61748,2.59469 l 19.11026,109.5998 a 24.294844,24.294844 106.30591 0 1 -6.02248,20.58739 l -100.62606,109.80363 -11.7309,-126.47788 a 20.757117,20.757117 107.39417 0 1 4.7879,-15.28366 z"
           sodipodi:nodetypes="ccccc"
           inkscape:path-effect="#path-effect58"
           inkscape:original-d="m 354.76558,-314.12643 98.04561,-116.48485 23.18864,132.98982 -108.70171,118.61582 z" /><path
           id="path156"
           style="fill:url(#linearGradient158);stroke:#f0ecdd;stroke-width:0.0261937;stroke-linecap:round;stroke-linejoin:round"
           d="m 62.413245,903.18156 c -8.37068,18.20813 1.808158,31.9288 1.808158,31.9288 l 14.521077,3.18792 0.177251,-0.0842 128.450559,27.12343 a 16.079515,16.079515 0 0 0 7.11739,-0.1416 c -7.21952,-13.47426 -2.55257,-29.59858 -2.54558,-29.62146 l 0.0904,-0.0486 a 24.294844,24.294844 0 0 1 -6.26009,-0.55552 L 109.25221,913.5675 Z M 219.5313,963.02911 a 16.079515,16.079515 0 0 1 -0.55862,0.3286 16.079515,16.079515 0 0 0 0.55862,-0.3286 z m -1.73477,0.9875 a 16.079515,16.079515 0 0 1 -0.70952,0.3121 16.079515,16.079515 0 0 0 0.70952,-0.3121 z m -1.84692,0.7664 a 16.079515,16.079515 0 0 1 -0.78393,0.2403 16.079515,16.079515 0 0 0 0.78393,-0.2403 z" /><path
           id="path174"
           style="fill:#5695d0;fill-opacity:0.500967;stroke:#f0ecdd;stroke-width:0.0261937;stroke-linecap:round;stroke-linejoin:round"
           d="m 309.52581,886.38879 -72.74956,62.09337 h -5.2e-4 v 5.1e-4 l -15.64452,13.35268 a 16.079515,16.079515 0 0 1 -1.59991,1.19372 16.079515,16.079515 0 0 1 -0.55862,0.32867 16.079515,16.079515 0 0 1 -1.17615,0.65887 16.079515,16.079515 0 0 1 -0.70952,0.31213 16.079515,16.079515 0 0 1 -1.1374,0.45423 16.079515,16.079515 0 0 1 -0.78393,0.2403 16.079515,16.079515 0 0 1 -0.678,0.1726 16.079515,16.079515 0 0 1 -7.11739,0.14159 l -128.450559,-27.12341 -0.177251,0.0842 -14.521077,-3.18792 c 0,0 -4.854591,-6.54412 -5.101497,-16.59071 -0.26857,10.93926 5.101497,18.17821 5.101497,18.17821 l 14.521077,3.18792 0.177251,-0.0842 128.450559,27.12341 a 16.079515,16.079515 0 0 0 7.11739,-0.14159 16.079515,16.079515 0 0 0 0.678,-0.1726 16.079515,16.079515 0 0 0 0.78393,-0.2403 16.079515,16.079515 0 0 0 1.1374,-0.45423 16.079515,16.079515 0 0 0 0.70952,-0.31213 16.079515,16.079515 0 0 0 1.17615,-0.65887 16.079515,16.079515 0 0 0 0.55862,-0.32867 16.079515,16.079515 0 0 0 1.59991,-1.19372 l 15.64452,-13.35268 v -5.1e-4 h 5.2e-4 l 73.38518,-62.63597 c -0.22265,-0.34716 -0.43445,-0.69543 -0.63562,-1.0449 z" /></g></g><path
       id="path245"
       style="font-size:13.3333px;font-family:Bookerly;-inkscape-font-specification:Bookerly;fill:#2d6eaa;stroke:none;stroke-width:0.099;stroke-linecap:round;stroke-linejoin:round;fill-opacity:1"
       d="m 68.26262,28.025599 c -0.205471,-0.03339 -0.42924,-0.0628 -0.672651,-0.08596 -0.232863,-0.02156 -0.470346,-0.04008 -0.711628,-0.0548 -0.230838,-0.0132 -0.46075,-0.02174 -0.689858,-0.02639 -0.218863,-0.0032 -0.418397,0.002 -0.594842,0.01387 -0.284299,0.01874 -0.495698,0.04023 -0.640171,0.06552 -0.134228,0.02681 -0.238473,0.06753 -0.309258,0.121149 l -0.159515,0.120728 c -0.06054,0.05525 -0.116965,0.110881 -0.167453,0.167858 l 1.255556,0.316594 -8.262965,6.267273 c -0.730546,0.01178 -1.343507,0.0401 -1.840969,0.08547 l -0.593449,0.378475 4.321321,0.795432 c 0.187922,-0.09478 0.32931,-0.167905 0.422451,-0.219724 0.102561,-0.05867 0.183021,-0.109655 0.237622,-0.151337 0.172922,-0.131792 0.134265,-0.237691 -0.116274,-0.317691 l -0.921681,-0.295955 z m 9.956567,1.618788 c -0.214614,-0.03485 -0.447926,-0.06569 -0.701376,-0.0902 -0.2424,-0.0228 -0.487204,-0.04203 -0.738119,-0.0578 -0.240064,-0.01406 -0.481312,-0.02378 -0.719246,-0.0293 -0.22708,-0.0037 -0.431618,0.0014 -0.614267,0.01325 -0.294208,0.01851 -0.51502,0.03965 -0.663886,0.06526 -0.138219,0.02723 -0.244841,0.0688 -0.316192,0.123736 -0.02676,0.02063 -0.07453,0.06292 -0.144558,0.126328 -0.07145,0.05494 -0.130552,0.111546 -0.181405,0.169833 l 1.312492,0.32837 -7.950007,6.127417 -1.256,0.817426 c 0.288121,0.201735 0.671311,0.382409 1.149838,0.540816 0.481281,0.167835 1.042507,0.310213 1.684319,0.428619 0.675793,0.124696 1.375965,0.166407 2.099552,0.122659 0.733993,-0.05103 1.471035,-0.182273 2.210158,-0.392398 0.739523,-0.210137 1.461435,-0.494928 2.162762,-0.853392 0.721203,-0.3633 1.395052,-0.791251 2.025961,-1.283473 1.058105,-0.825715 1.58286,-1.515856 1.572872,-2.070088 0.0099,-0.557268 -0.512723,-0.924864 -1.565286,-1.10296 -0.497439,-0.08417 -1.069934,-0.0949 -1.713523,-0.03369 -0.631833,0.06309 -1.322404,0.192585 -2.072319,0.388295 0.220154,-0.149866 0.42035,-0.290493 0.602508,-0.421132 0.201829,-0.13567 0.380865,-0.263324 0.534041,-0.381681 z m -5.695266,-0.864258 c -0.763412,-0.124242 -1.469292,0.06098 -2.118895,0.557406 -0.588237,0.449561 -0.529973,0.734198 0.179858,0.852378 0.764491,0.127214 1.476721,-0.05998 2.128531,-0.559867 0.588293,-0.451261 0.523981,-0.733836 -0.189494,-0.849917 z m -19.99921,-2.5058 c -0.748677,-0.123138 -1.54943,-0.14414 -2.404871,-0.06343 -0.844096,0.0822 -1.70586,0.251503 -2.587569,0.508776 -0.86274,0.252161 -1.727943,0.591319 -2.595209,1.017565 -0.858929,0.420018 -1.673387,0.91287 -2.441073,1.478491 -1.433654,1.056083 -2.138309,1.938526 -2.108751,2.647788 0.04804,0.708265 0.836651,1.204565 2.372719,1.488015 0.438229,0.08086 0.882073,0.128657 1.326945,0.144015 0.446099,0.02373 0.861007,0.02219 1.247666,-0.0069 0.395979,-0.03585 0.747564,-0.09701 1.054673,-0.182691 0.325885,-0.09058 0.582581,-0.20592 0.771169,-0.346636 l 0.484863,-0.361652 c -0.480192,0.06262 -1.006627,0.08327 -1.577483,0.06279 -0.569757,-0.02051 -1.1123,-0.07815 -1.628407,-0.172029 -1.21849,-0.221556 -1.832389,-0.596804 -1.847275,-1.124795 -0.006,-0.532431 0.585115,-1.23606 1.771515,-2.112137 1.191598,-0.87992 2.38603,-1.512927 3.585748,-1.900686 1.200611,-0.388085 2.30767,-0.497555 3.322575,-0.328551 0.509163,0.08486 0.886958,0.228562 1.135565,0.430258 l -1.305355,1.288923 0.201596,0.03439 c 0.309527,0.05271 0.615556,0.01617 0.916759,-0.110661 0.319675,-0.131832 0.750147,-0.39929 1.288463,-0.800592 l 0.329128,-0.245428 c 0.123378,-0.09185 0.233281,-0.178829 0.329456,-0.259241 0.114454,-0.08521 0.205329,-0.158071 0.27503,-0.218566 l 0.198986,-0.148396 C 54.502299,26.85794 54.239891,26.72714 53.854733,26.599838 53.489058,26.467911 53.044495,26.359812 52.524611,26.274343 Z m 5.220171,2.996987 c -0.386697,-0.06544 -0.817308,-0.09359 -1.29032,-0.08398 -0.472514,0.0096 -0.94084,0.04838 -1.40529,0.116082 -0.46405,0.06769 -0.885759,0.158646 -1.26703,0.272826 -0.381171,0.114178 -0.671359,0.245119 -0.866804,0.39132 -0.195643,0.146208 -0.289774,0.280384 -0.286354,0.403937 0.01307,0.125394 0.121703,0.207006 0.327338,0.242797 l 0.616404,0.107283 c 0.97247,-0.710472 1.955963,-0.980883 2.954009,-0.810125 0.446111,0.07635 0.642597,0.222122 0.590906,0.435388 -0.04276,0.206923 -0.335975,0.515608 -0.880955,0.925793 l -0.765113,0.575755 c -0.542991,-0.07054 -0.989771,-0.119662 -1.342072,-0.14851 -0.342776,-0.03541 -0.649678,-0.05747 -0.920946,-0.06379 -1.808255,-0.07086 -3.222992,0.278158 -4.253383,1.048207 -0.59262,0.442876 -0.865658,0.832349 -0.817927,1.167989 0.04785,0.336536 0.404047,0.566052 1.069584,0.688823 0.471104,0.08688 1.009521,0.102625 1.614085,0.04476 0.605561,-0.05798 1.191608,-0.179567 1.756564,-0.363806 l -0.127029,0.179376 c -0.28103,0.397391 -0.195018,0.638668 0.262611,0.723008 0.189207,0.03493 0.410395,0.05009 0.664469,0.04577 0.25511,0.0043 0.505841,-0.0053 0.748497,-0.02882 0.251872,-0.03047 0.478685,-0.07028 0.67966,-0.118596 0.210094,-0.05516 0.354697,-0.112866 0.436269,-0.174579 l 0.326388,-0.246855 c -0.08934,-0.0078 -0.203796,-0.01943 -0.343202,-0.0364 l -0.361294,-0.06572 c -0.320283,-0.05832 -0.495673,-0.141238 -0.527065,-0.248534 -0.01222,-0.112312 0.125201,-0.277163 0.413952,-0.495096 l 3.10011,-2.338701 c 0.822532,-0.620514 1.22374,-1.098461 1.19977,-1.432138 -0.014,-0.331043 -0.450638,-0.568803 -1.305832,-0.713487 z m 30.28584,5.124183 c -0.54266,-0.09176 -1.169743,-0.07901 -1.876801,0.03632 -0.695009,0.117008 -1.512541,0.342745 -2.456972,0.678231 l -0.1007,-0.0173 1.267699,-1.141558 c -0.32379,-0.05482 -0.740409,-0.09465 -1.249082,-0.120298 -0.496614,-0.02367 -0.948944,-0.02242 -1.358707,0.003 -0.389197,0.02026 -0.654762,0.0437 -0.797475,0.07124 -0.1336,0.0204 -0.238192,0.05931 -0.310894,0.116092 l -0.12169,0.0951 c -0.04342,0.04459 -0.10377,0.103024 -0.18374,0.175998 l 1.303769,0.498866 -4.825947,3.782871 c -0.340817,2.21e-4 -0.689145,0.0076 -1.047678,0.02235 -0.348923,0.0076 -0.674107,0.02372 -0.976851,0.04845 l -0.60935,0.397308 5.288756,0.973614 c 0.312441,-0.159048 0.535592,-0.290488 0.665388,-0.392911 0.194451,-0.153377 0.155137,-0.268764 -0.119933,-0.345904 L 78.967832,38.874022 82.73252,35.91495 c 0.793318,-0.248296 1.43228,-0.418417 1.917698,-0.509886 0.506183,-0.09683 0.905821,-0.119371 1.198579,-0.06902 0.360797,0.06203 0.649502,0.22964 0.866465,0.504613 0.732453,-0.164231 1.272586,-0.382516 1.619641,-0.656935 0.510733,-0.404063 0.409623,-0.667442 -0.304381,-0.78831 z m 5.893006,0.997196 c -0.660138,-0.111711 -1.347015,-0.138874 -2.059785,-0.08351 -0.700113,0.05732 -1.407741,0.192376 -2.121577,0.405424 -0.692875,0.207583 -1.381224,0.490571 -2.069943,0.849097 -0.689111,0.358837 -1.346575,0.786048 -1.972491,1.281636 -1.190218,0.942505 -1.728933,1.705048 -1.610152,2.287368 0.119352,0.584906 0.902187,1.011336 2.35159,1.278706 0.438935,0.08104 0.872296,0.133322 1.299185,0.156966 0.439051,0.02582 0.838005,0.0262 1.199153,7.99e-4 0.373108,-0.02333 0.699764,-0.07402 0.982304,-0.150836 0.294297,-0.07483 0.522556,-0.176197 0.681103,-0.3032 l 0.474945,-0.380793 c -0.497555,0.01957 -1.017934,0.01243 -1.56076,-0.0222 -0.530063,-0.03247 -0.998151,-0.08532 -1.403581,-0.159162 -1.016133,-0.184978 -1.581903,-0.488993 -1.701537,-0.909431 -0.109992,-0.4264 0.222265,-0.946311 0.997708,-1.562059 l 0.05681,-0.04495 5.732821,1.014804 c 0.197361,-0.100934 0.427678,-0.241173 0.694064,-0.420291 0.275489,-0.186566 0.506788,-0.353538 0.691379,-0.501549 0.857346,-0.687473 1.220537,-1.269837 1.09077,-1.747224 -0.108453,-0.480861 -0.694222,-0.810649 -1.751911,-0.989708 z m -23.94275,-3.962416 c -0.188627,-0.03195 -0.401832,-0.05903 -0.639348,-0.08256 -0.237315,-0.02344 -0.479348,-0.04374 -0.72518,-0.06024 -0.235182,-0.01478 -0.469335,-0.0248 -0.702885,-0.03093 -0.222796,-0.0043 -0.419195,-0.0054 -0.589936,-8.7e-4 -0.310129,0.01423 -0.527931,0.03199 -0.655536,0.05212 -0.127605,0.02013 -0.228631,0.05776 -0.300387,0.112508 l -0.161547,0.123283 c -0.05238,0.04973 -0.09818,0.09497 -0.141849,0.137859 l 1.208251,0.473422 -4.847774,3.70773 c -0.342043,0.0067 -0.671509,0.01984 -0.991106,0.03913 -0.31018,0.01235 -0.599664,0.02802 -0.868129,0.04783 l -0.597621,0.383288 4.359224,0.802517 c 0.30359,-0.153408 0.521565,-0.280108 0.649667,-0.378584 0.182892,-0.140563 0.14629,-0.25182 -0.110695,-0.333448 L 63.968791,36.143633 70.09142,31.449008 Z M 92.671087,36.1229 c 1.300145,0.222463 1.348077,0.818791 0.133031,1.790373 l -0.151991,0.121525 -4.125893,-0.722554 c 0.700603,-0.500796 1.396386,-0.849608 2.094096,-1.048518 0.707216,-0.206267 1.391789,-0.25367 2.050755,-0.140926 z m -16.75133,-2.661883 c 0.670231,0.115042 0.971388,0.373748 0.904764,0.775882 -0.05758,0.396289 -0.473514,0.89574 -1.248693,1.498976 -0.914125,0.711406 -1.826358,1.210185 -2.738371,1.493781 -0.902105,0.276327 -1.788968,0.334265 -2.659244,0.175581 -0.66389,-0.121014 -1.11868,-0.28586 -1.360313,-0.496046 l 4.059026,-3.136642 c 1.15573,-0.356968 2.170196,-0.46125 3.042831,-0.311532 z M 54.570954,32.52633 53.167419,33.582705 c -0.177614,0.0689 -0.376054,0.129645 -0.594105,0.182821 -0.199081,0.04807 -0.408035,0.08609 -0.62838,0.113416 -0.211327,0.02049 -0.424685,0.03232 -0.63747,0.03573 -0.193816,-0.0017 -0.367794,-0.01713 -0.52522,-0.04582 -0.383317,-0.06994 -0.598297,-0.196603 -0.644471,-0.381229 -0.04607,-0.18433 0.08735,-0.393788 0.401941,-0.629422 0.17955,-0.134571 0.37391,-0.242929 0.577933,-0.323038 0.213772,-0.07837 0.456787,-0.133215 0.732975,-0.167145 0.286139,-0.0322 0.605071,-0.03896 0.955257,-0.01817 0.359504,0.01395 0.78018,0.05207 1.262385,0.112838 z" /><path
       id="path10"
       style="font-size:13.3333px;font-family:Bookerly;-inkscape-font-specification:Bookerly;fill:#dec678;stroke:none;stroke-width:0.099;stroke-linecap:round;stroke-linejoin:round;fill-opacity:1"
       d="m 68.26262,27.81844 c -0.205471,-0.03339 -0.42924,-0.0628 -0.672651,-0.08596 -0.232863,-0.02156 -0.470346,-0.04008 -0.711628,-0.0548 -0.230838,-0.0132 -0.46075,-0.02174 -0.689858,-0.02639 -0.218863,-0.0032 -0.418397,0.002 -0.594842,0.01387 -0.284299,0.01874 -0.495698,0.04023 -0.640171,0.06552 -0.134228,0.02681 -0.238473,0.06753 -0.309258,0.121149 l -0.159515,0.120728 c -0.06054,0.05525 -0.116965,0.110881 -0.167453,0.167858 l 1.255556,0.316594 -8.262965,6.267273 c -0.730546,0.01178 -1.343507,0.0401 -1.840969,0.08547 l -0.593449,0.378475 4.321321,0.795432 c 0.187922,-0.09478 0.32931,-0.167905 0.422451,-0.219724 0.102561,-0.05867 0.183021,-0.109655 0.237622,-0.151337 0.172922,-0.131792 0.134265,-0.237691 -0.116274,-0.317691 l -0.921681,-0.295955 z m 9.956567,1.618788 c -0.214614,-0.03485 -0.447926,-0.06569 -0.701376,-0.0902 -0.2424,-0.0228 -0.487204,-0.04203 -0.738119,-0.0578 -0.240064,-0.01406 -0.481312,-0.02378 -0.719246,-0.0293 -0.22708,-0.0037 -0.431618,0.0014 -0.614267,0.01325 -0.294208,0.01851 -0.51502,0.03965 -0.663886,0.06526 -0.138219,0.02723 -0.244841,0.0688 -0.316192,0.123736 -0.02676,0.02063 -0.07453,0.06292 -0.144558,0.126328 -0.07145,0.05494 -0.130552,0.111546 -0.181405,0.169833 l 1.312492,0.32837 -7.950007,6.127417 -1.256,0.817426 c 0.288121,0.201735 0.671311,0.382409 1.149838,0.540816 0.481281,0.167835 1.042507,0.310213 1.684319,0.428619 0.675793,0.124696 1.375965,0.166407 2.099552,0.122659 0.733993,-0.05103 1.471035,-0.182273 2.210158,-0.392398 0.739523,-0.210137 1.461435,-0.494928 2.162762,-0.853392 0.721203,-0.3633 1.395052,-0.791251 2.025961,-1.283473 1.058105,-0.825715 1.58286,-1.515856 1.572872,-2.070088 0.0099,-0.557268 -0.512723,-0.924864 -1.565286,-1.10296 -0.497439,-0.08417 -1.069934,-0.0949 -1.713523,-0.03369 -0.631833,0.06309 -1.322404,0.192585 -2.072319,0.388295 0.220154,-0.149866 0.42035,-0.290493 0.602508,-0.421132 0.201829,-0.13567 0.380865,-0.263324 0.534041,-0.381681 z M 72.523921,28.57297 c -0.763412,-0.124242 -1.469292,0.06098 -2.118895,0.557406 -0.588237,0.449561 -0.529973,0.734198 0.179858,0.852378 0.764491,0.127214 1.476721,-0.05998 2.128531,-0.559867 0.588293,-0.451261 0.523981,-0.733836 -0.189494,-0.849917 z m -19.99921,-2.5058 c -0.748677,-0.123138 -1.54943,-0.14414 -2.404871,-0.06343 -0.844096,0.0822 -1.70586,0.251503 -2.587569,0.508776 -0.86274,0.252161 -1.727943,0.591319 -2.595209,1.017565 -0.858929,0.420018 -1.673387,0.91287 -2.441073,1.478491 -1.433654,1.056083 -2.138309,1.938526 -2.108751,2.647788 0.04804,0.708265 0.836651,1.204565 2.372719,1.488015 0.438229,0.08086 0.882073,0.128657 1.326945,0.144015 0.446099,0.02373 0.861007,0.02219 1.247666,-0.0069 0.395979,-0.03585 0.747564,-0.09701 1.054673,-0.182691 0.325885,-0.09058 0.582581,-0.20592 0.771169,-0.346636 l 0.484863,-0.361652 c -0.480192,0.06262 -1.006627,0.08327 -1.577483,0.06279 -0.569757,-0.02051 -1.1123,-0.07815 -1.628407,-0.172029 -1.21849,-0.221556 -1.832389,-0.596804 -1.847275,-1.124795 -0.006,-0.532431 0.585115,-1.23606 1.771515,-2.112137 1.191598,-0.87992 2.38603,-1.512927 3.585748,-1.900686 1.200611,-0.388085 2.30767,-0.497555 3.322575,-0.328551 0.509163,0.08486 0.886958,0.228562 1.135565,0.430258 l -1.305355,1.288923 0.201596,0.03439 c 0.309527,0.05271 0.615556,0.01617 0.916759,-0.110661 0.319675,-0.131832 0.750147,-0.39929 1.288463,-0.800592 l 0.329128,-0.245428 c 0.123378,-0.09185 0.233281,-0.178829 0.329456,-0.259241 0.114454,-0.08521 0.205329,-0.158071 0.27503,-0.218566 l 0.198986,-0.148396 c -0.139275,-0.135009 -0.401683,-0.265809 -0.786841,-0.393111 -0.365675,-0.131927 -0.810238,-0.240026 -1.330122,-0.325495 z m 5.220171,2.996987 c -0.386697,-0.06544 -0.817308,-0.09359 -1.29032,-0.08398 -0.472514,0.0096 -0.94084,0.04838 -1.40529,0.116082 -0.46405,0.06769 -0.885759,0.158646 -1.26703,0.272826 -0.381171,0.114178 -0.671359,0.245119 -0.866804,0.39132 -0.195643,0.146208 -0.289774,0.280384 -0.286354,0.403937 0.01307,0.125394 0.121703,0.207006 0.327338,0.242797 l 0.616404,0.107283 c 0.97247,-0.710472 1.955963,-0.980883 2.954009,-0.810125 0.446111,0.07635 0.642597,0.222122 0.590906,0.435388 -0.04276,0.206923 -0.335975,0.515608 -0.880955,0.925793 l -0.765113,0.575755 c -0.542991,-0.07054 -0.989771,-0.119662 -1.342072,-0.14851 -0.342776,-0.03541 -0.649678,-0.05747 -0.920946,-0.06379 -1.808255,-0.07086 -3.222992,0.278158 -4.253383,1.048207 -0.59262,0.442876 -0.865658,0.832349 -0.817927,1.167989 0.04785,0.336536 0.404047,0.566052 1.069584,0.688823 0.471104,0.08688 1.009521,0.102625 1.614085,0.04476 0.605561,-0.05798 1.191608,-0.179567 1.756564,-0.363806 l -0.127029,0.179376 c -0.28103,0.397391 -0.195018,0.638668 0.262611,0.723008 0.189207,0.03493 0.410395,0.05009 0.664469,0.04577 0.25511,0.0043 0.505841,-0.0053 0.748497,-0.02882 0.251872,-0.03047 0.478685,-0.07028 0.67966,-0.118596 0.210094,-0.05516 0.354697,-0.112866 0.436269,-0.174579 l 0.326388,-0.246855 c -0.08934,-0.0078 -0.203796,-0.01943 -0.343202,-0.0364 l -0.361294,-0.06572 c -0.320283,-0.05832 -0.495673,-0.141238 -0.527065,-0.248534 -0.01222,-0.112312 0.125201,-0.277163 0.413952,-0.495096 l 3.10011,-2.338701 c 0.822532,-0.620514 1.22374,-1.098461 1.19977,-1.432138 -0.014,-0.331043 -0.450638,-0.568803 -1.305832,-0.713487 z m 30.28584,5.124183 c -0.54266,-0.09176 -1.169743,-0.07901 -1.876801,0.03632 -0.695009,0.117008 -1.512541,0.342745 -2.456972,0.678231 l -0.1007,-0.0173 1.267699,-1.141558 c -0.32379,-0.05482 -0.740409,-0.09465 -1.249082,-0.120298 -0.496614,-0.02367 -0.948944,-0.02242 -1.358707,0.003 -0.389197,0.02026 -0.654762,0.0437 -0.797475,0.07124 -0.1336,0.0204 -0.238192,0.05931 -0.310894,0.116092 l -0.12169,0.0951 c -0.04342,0.04459 -0.10377,0.103024 -0.18374,0.175998 l 1.303769,0.498866 -4.825947,3.782871 c -0.340817,2.21e-4 -0.689145,0.0076 -1.047678,0.02235 -0.348923,0.0076 -0.674107,0.02372 -0.976851,0.04845 l -0.60935,0.397308 5.288756,0.973614 c 0.312441,-0.159048 0.535592,-0.290488 0.665388,-0.392911 0.194451,-0.153377 0.155137,-0.268764 -0.119933,-0.345904 l -1.552682,-0.402946 3.764688,-2.959072 c 0.793318,-0.248296 1.43228,-0.418417 1.917698,-0.509886 0.506183,-0.09683 0.905821,-0.119371 1.198579,-0.06902 0.360797,0.06203 0.649502,0.22964 0.866465,0.504613 0.732453,-0.164231 1.272586,-0.382516 1.619641,-0.656935 0.510733,-0.404063 0.409623,-0.667442 -0.304381,-0.78831 z m 5.893006,0.997196 c -0.660138,-0.111711 -1.347015,-0.138874 -2.059785,-0.08351 -0.700113,0.05732 -1.407741,0.192376 -2.121577,0.405424 -0.692875,0.207583 -1.381224,0.490571 -2.069943,0.849097 -0.689111,0.358837 -1.346575,0.786048 -1.972491,1.281636 -1.190218,0.942505 -1.728933,1.705048 -1.610152,2.287368 0.119352,0.584906 0.902187,1.011336 2.35159,1.278706 0.438935,0.08104 0.872296,0.133322 1.299185,0.156966 0.439051,0.02582 0.838005,0.0262 1.199153,7.99e-4 0.373108,-0.02333 0.699764,-0.07402 0.982304,-0.150836 0.294297,-0.07483 0.522556,-0.176197 0.681103,-0.3032 l 0.474945,-0.380793 c -0.497555,0.01957 -1.017934,0.01243 -1.56076,-0.0222 -0.530063,-0.03247 -0.998151,-0.08532 -1.403581,-0.159162 -1.016133,-0.184978 -1.581903,-0.488993 -1.701537,-0.909431 -0.109992,-0.4264 0.222265,-0.946311 0.997708,-1.562059 l 0.05681,-0.04495 5.732821,1.014804 c 0.197361,-0.100934 0.427678,-0.241173 0.694064,-0.420291 0.275489,-0.186566 0.506788,-0.353538 0.691379,-0.501549 0.857346,-0.687473 1.220537,-1.269837 1.09077,-1.747224 -0.108453,-0.480861 -0.694222,-0.810649 -1.751911,-0.989708 z M 69.980978,31.22312 c -0.188627,-0.03195 -0.401832,-0.05903 -0.639348,-0.08256 -0.237315,-0.02344 -0.479348,-0.04374 -0.72518,-0.06024 -0.235182,-0.01478 -0.469335,-0.0248 -0.702885,-0.03093 -0.222796,-0.0043 -0.419195,-0.0054 -0.589936,-8.7e-4 -0.310129,0.01423 -0.527931,0.03199 -0.655536,0.05212 -0.127605,0.02013 -0.228631,0.05776 -0.300387,0.112508 l -0.161547,0.123283 c -0.05238,0.04973 -0.09818,0.09497 -0.141849,0.137859 l 1.208251,0.473422 -4.847774,3.70773 c -0.342043,0.0067 -0.671509,0.01984 -0.991106,0.03913 -0.31018,0.01235 -0.599664,0.02802 -0.868129,0.04783 l -0.597621,0.383288 4.359224,0.802517 c 0.30359,-0.153408 0.521565,-0.280108 0.649667,-0.378584 0.182892,-0.140563 0.14629,-0.25182 -0.110695,-0.333448 l -0.897336,-0.279701 6.122629,-4.694625 z m 22.690109,4.692621 c 1.300145,0.222463 1.348077,0.818791 0.133031,1.790373 l -0.151991,0.121525 -4.125893,-0.722554 c 0.700603,-0.500796 1.396386,-0.849608 2.094096,-1.048518 0.707216,-0.206267 1.391789,-0.25367 2.050755,-0.140926 z m -16.75133,-2.661883 c 0.670231,0.115042 0.971388,0.373748 0.904764,0.775882 -0.05758,0.396289 -0.473514,0.89574 -1.248693,1.498976 -0.914125,0.711406 -1.826358,1.210185 -2.738371,1.493781 -0.902105,0.276327 -1.788968,0.334265 -2.659244,0.175581 -0.66389,-0.121014 -1.11868,-0.28586 -1.360313,-0.496046 l 4.059026,-3.136642 c 1.15573,-0.356968 2.170196,-0.46125 3.042831,-0.311532 z m -21.348803,-0.934687 -1.403535,1.056375 c -0.177614,0.0689 -0.376054,0.129645 -0.594105,0.182821 -0.199081,0.04807 -0.408035,0.08609 -0.62838,0.113416 -0.211327,0.02049 -0.424685,0.03232 -0.63747,0.03573 -0.193816,-0.0017 -0.367794,-0.01713 -0.52522,-0.04582 -0.383317,-0.06994 -0.598297,-0.196603 -0.644471,-0.381229 -0.04607,-0.18433 0.08735,-0.393788 0.401941,-0.629422 0.17955,-0.134571 0.37391,-0.242929 0.577933,-0.323038 0.213772,-0.07837 0.456787,-0.133215 0.732975,-0.167145 0.286139,-0.0322 0.605071,-0.03896 0.955257,-0.01817 0.359504,0.01395 0.78018,0.05207 1.262385,0.112838 z" /><path
       id="path248"
       style="fill:#000000;fill-opacity:0.11751948;stroke:none;stroke-width:0.099;stroke-linecap:round;stroke-linejoin:round"
       d="M 12.005859 51.273438 L 12.005859 61.117188 L 13.892578 59.714844 L 15.779297 61.953125 L 15.779297 52.109375 L 13.892578 51.691406 L 12.005859 51.273438 z " /><path
       id="path246"
       style="fill:#ae3e3e;fill-opacity:1;stroke:none;stroke-width:0.099;stroke-linecap:round;stroke-linejoin:round"
       d="M 12.005859 51.273438 C 12.005859 51.273438 9.6318691 53.876672 10.203125 60.277344 L 11.865234 58.371094 L 13.978516 61.117188 C 13.406749 54.715407 15.779297 52.109375 15.779297 52.109375 L 12.005859 51.273438 z " /><path
       id="path250"
       style="fill:#6f2828;fill-opacity:1;stroke:none;stroke-width:0.099;stroke-linecap:round;stroke-linejoin:round"
       d="M 12.005859 51.273438 C 12.005859 51.273438 11.764255 51.539106 11.453125 52.109375 L 15.226562 52.945312 C 15.537301 52.375078 15.779297 52.109375 15.779297 52.109375 L 12.005859 51.273438 z " /></g></svg>
