<?xml version="1.0" encoding="UTF-8" standalone="no"?>
<svg
   height="128px"
   viewBox="0 0 128 128"
   width="128px"
   version="1.1"
   id="svg53"
   sodipodi:docname="org.gnome.Connections.svg"
   xml:space="preserve"
   inkscape:version="1.4.3 (0d15f75042, 2025-12-25)"
   xmlns:inkscape="http://www.inkscape.org/namespaces/inkscape"
   xmlns:sodipodi="http://sodipodi.sourceforge.net/DTD/sodipodi-0.dtd"
   xmlns:xlink="http://www.w3.org/1999/xlink"
   xmlns="http://www.w3.org/2000/svg"
   xmlns:svg="http://www.w3.org/2000/svg"><defs
     id="defs53"><linearGradient
       id="linearGradient88"
       inkscape:collect="always"><stop
         style="stop-color:#bbefd7;stop-opacity:1;"
         offset="0"
         id="stop88" /><stop
         style="stop-color:#55d79b;stop-opacity:1;"
         offset="1"
         id="stop89" /></linearGradient><linearGradient
       id="linearGradient81"
       inkscape:collect="always"><stop
         style="stop-color:#165098;stop-opacity:1;"
         offset="0"
         id="stop81" /><stop
         style="stop-color:#165098;stop-opacity:1;"
         offset="0.40069991"
         id="stop85" /><stop
         style="stop-color:#1a5fb4;stop-opacity:1;"
         offset="0.5"
         id="stop83" /><stop
         style="stop-color:#165098;stop-opacity:1;"
         offset="0.59848678"
         id="stop84" /><stop
         style="stop-color:#165098;stop-opacity:1;"
         offset="1"
         id="stop82" /></linearGradient><clipPath
       clipPathUnits="userSpaceOnUse"
       id="clipPath67"><path
         d="M 4,6 H 124 V 126 H 4 Z m 0,0"
         id="path68" /></clipPath><clipPath
       clipPathUnits="userSpaceOnUse"
       id="clipPath68"><path
         d="M 4,4 H 124 V 120 H 4 Z m 0,0"
         id="path69" /></clipPath><clipPath
       clipPathUnits="userSpaceOnUse"
       id="clipPath71"><path
         d="M 4,4 H 124 V 120 H 4 Z m 0,0"
         id="path72" /></clipPath><linearGradient
       inkscape:collect="always"
       xlink:href="#linearGradient81"
       id="linearGradient82"
       x1="-135.55439"
       y1="62.992184"
       x2="-15.999996"
       y2="62.992184"
       gradientUnits="userSpaceOnUse" /><linearGradient
       inkscape:collect="always"
       xlink:href="#linearGradient88"
       id="linearGradient89"
       x1="-75.777344"
       y1="-5.0019531"
       x2="-75.777344"
       y2="76.810547"
       gradientUnits="userSpaceOnUse" /><linearGradient
       y2="236"
       x2="96"
       y1="236"
       x1="32"
       gradientTransform="translate(604.81684,170.58641)"
       gradientUnits="userSpaceOnUse"
       id="linearGradient1099"
       xlink:href="#linearGradient1036" /><linearGradient
       id="linearGradient1036"><stop
         id="stop1032"
         offset="0"
         style="stop-color:#d5d3cf;stop-opacity:1;" /><stop
         id="stop1034"
         offset="1"
         style="stop-color:#f6f5f4;stop-opacity:1" /></linearGradient><radialGradient
       r="32"
       fy="-76"
       fx="-244"
       cy="-76"
       cx="-244"
       gradientTransform="matrix(0.88333331,0,0,0.88333331,-460.35018,463.11973)"
       gradientUnits="userSpaceOnUse"
       id="radialGradient1103"
       xlink:href="#linearGradient1069" /><linearGradient
       id="linearGradient1069"><stop
         id="stop1065"
         offset="0"
         style="stop-color:#d5d3cf;stop-opacity:1" /><stop
         id="stop1067-1"
         offset="1"
         style="stop-color:#949390;stop-opacity:1" /></linearGradient><linearGradient
       gradientUnits="userSpaceOnUse"
       y2="232"
       x2="64"
       y1="262.5"
       x1="64"
       id="linearGradient1027"
       xlink:href="#linearGradient1025"
       gradientTransform="translate(-470.5864,432.81685)" /><linearGradient
       id="linearGradient1025"><stop
         id="stop1021"
         offset="0"
         style="stop-color:#9a9996;stop-opacity:1" /><stop
         id="stop1023"
         offset="1"
         style="stop-color:#77767b;stop-opacity:1" /></linearGradient><inkscape:path-effect
       effect="spiro"
       id="path-effect35304-9"
       is_visible="true" /><clipPath
       clipPathUnits="userSpaceOnUse"
       id="clipPath1609-7"><path
         sodipodi:nodetypes="cccccc"
         inkscape:connector-curvature="0"
         id="path1611-5"
         d="m 252,116 28,-28 v -8 h -36 v 36 z"
         style="fill:#e74747;stroke:none;stroke-width:0.25px;stroke-linecap:butt;stroke-linejoin:miter;stroke-opacity:1" /></clipPath><radialGradient
       r="32"
       fy="-76"
       fx="-244"
       cy="-76"
       cx="-244"
       gradientTransform="matrix(0.88333331,0,0,0.88333331,-460.35018,463.11973)"
       gradientUnits="userSpaceOnUse"
       id="radialGradient1103-5"
       xlink:href="#linearGradient1069" /><inkscape:path-effect
       effect="spiro"
       id="path-effect35304-9-2"
       is_visible="true" /><clipPath
       clipPathUnits="userSpaceOnUse"
       id="clipPath1609-7-7"><path
         sodipodi:nodetypes="cccccc"
         inkscape:connector-curvature="0"
         id="path1611-5-0"
         d="m 252,116 28,-28 v -8 h -36 v 36 z"
         style="fill:#e74747;stroke:none;stroke-width:0.25px;stroke-linecap:butt;stroke-linejoin:miter;stroke-opacity:1" /></clipPath><clipPath
       clipPathUnits="userSpaceOnUse"
       id="clipPath744"><rect
         style="fill:#1e88e5;fill-opacity:1;stroke-width:0.264583"
         id="rect746"
         width="541.86664"
         height="541.86664"
         x="0"
         y="1.5987212e-14"
         rx="79.375"
         ry="79.375" /></clipPath><clipPath
       clipPathUnits="userSpaceOnUse"
       id="clipPath62"><rect
         style="fill:#1e88e5;fill-opacity:1;stroke-width:0.264583"
         id="rect64"
         width="541.86664"
         height="541.86664"
         x="2.2507105e-05"
         y="-0.42205024"
         rx="79.375"
         ry="79.375" /></clipPath><radialGradient
       r="32"
       fy="-76"
       fx="-244"
       cy="-76"
       cx="-244"
       gradientTransform="matrix(0.88333331,0,0,0.88333331,-460.35018,463.11973)"
       gradientUnits="userSpaceOnUse"
       id="radialGradient1103-6"
       xlink:href="#linearGradient1069" /><inkscape:path-effect
       effect="spiro"
       id="path-effect35304-9-20"
       is_visible="true" /><clipPath
       clipPathUnits="userSpaceOnUse"
       id="clipPath1609-7-2"><path
         sodipodi:nodetypes="cccccc"
         inkscape:connector-curvature="0"
         id="path1611-5-3"
         d="m 252,116 28,-28 v -8 h -36 v 36 z"
         style="fill:#e74747;stroke:none;stroke-width:0.25px;stroke-linecap:butt;stroke-linejoin:miter;stroke-opacity:1" /></clipPath><radialGradient
       r="32"
       fy="-76"
       fx="-244"
       cy="-76"
       cx="-244"
       gradientTransform="matrix(0.88333331,0,0,0.88333331,-460.35018,463.11973)"
       gradientUnits="userSpaceOnUse"
       id="radialGradient1103-56"
       xlink:href="#linearGradient1069" /><inkscape:path-effect
       effect="spiro"
       id="path-effect35304-9-7"
       is_visible="true" /><clipPath
       clipPathUnits="userSpaceOnUse"
       id="clipPath1609-7-0"><path
         sodipodi:nodetypes="cccccc"
         inkscape:connector-curvature="0"
         id="path1611-5-9"
         d="m 252,116 28,-28 v -8 h -36 v 36 z"
         style="fill:#e74747;stroke:none;stroke-width:0.25px;stroke-linecap:butt;stroke-linejoin:miter;stroke-opacity:1" /></clipPath><clipPath
       clipPathUnits="userSpaceOnUse"
       id="clipPath744-3"><rect
         style="fill:#1e88e5;fill-opacity:1;stroke-width:0.264583"
         id="rect746-6"
         width="541.86664"
         height="541.86664"
         x="0"
         y="1.5987212e-14"
         rx="79.375"
         ry="79.375" /></clipPath><clipPath
       clipPathUnits="userSpaceOnUse"
       id="clipPath62-0"><rect
         style="fill:#1e88e5;fill-opacity:1;stroke-width:0.264583"
         id="rect64-6"
         width="541.86664"
         height="541.86664"
         x="2.2507105e-05"
         y="-0.42205024"
         rx="79.375"
         ry="79.375" /></clipPath></defs><sodipodi:namedview
     id="namedview53"
     pagecolor="#ffffff"
     bordercolor="#999999"
     borderopacity="1"
     inkscape:showpageshadow="2"
     inkscape:pageopacity="0"
     inkscape:pagecheckerboard="0"
     inkscape:deskcolor="#d1d1d1"
     inkscape:zoom="2.8284271"
     inkscape:cx="32.350136"
     inkscape:cy="84.676038"
     inkscape:window-width="1728"
     inkscape:window-height="1043"
     inkscape:window-x="0"
     inkscape:window-y="0"
     inkscape:window-maximized="1"
     inkscape:current-layer="svg53" /><clipPath
     id="a"><path
       d="m 4 4 h 120 v 120 h -120 z m 0 0"
       id="path1" /></clipPath><clipPath
     id="b"><path
       d="m 123.996094 64 c 0 33.132812 -26.863282 59.996094 -59.996094 59.996094 s -59.996094 -26.863282 -59.996094 -59.996094 s 26.863282 -59.996094 59.996094 -59.996094 s 59.996094 26.863282 59.996094 59.996094 z m 0 0"
       id="path2" /></clipPath><clipPath
     id="c"><path
       d="m 4 4 h 120 v 116 h -120 z m 0 0"
       id="path3" /></clipPath><clipPath
     id="d"><path
       d="m 123.996094 64 c 0 33.132812 -26.863282 59.996094 -59.996094 59.996094 s -59.996094 -26.863282 -59.996094 -59.996094 s 26.863282 -59.996094 59.996094 -59.996094 s 59.996094 26.863282 59.996094 59.996094 z m 0 0"
       id="path4" /></clipPath><clipPath
     id="f"><path
       d="m 123.996094 64 c 0 33.132812 -26.863282 59.996094 -59.996094 59.996094 s -59.996094 -26.863282 -59.996094 -59.996094 s 26.863282 -59.996094 59.996094 -59.996094 s 59.996094 26.863282 59.996094 59.996094 z m 0 0"
       id="path6" /></clipPath><clipPath
     id="h"><path
       d="m 123.996094 64 c 0 33.132812 -26.863282 59.996094 -59.996094 59.996094 s -59.996094 -26.863282 -59.996094 -59.996094 s 26.863282 -59.996094 59.996094 -59.996094 s 59.996094 26.863282 59.996094 59.996094 z m 0 0"
       id="path8" /></clipPath><clipPath
     id="j"><path
       d="m 123.996094 64 c 0 33.132812 -26.863282 59.996094 -59.996094 59.996094 s -59.996094 -26.863282 -59.996094 -59.996094 s 26.863282 -59.996094 59.996094 -59.996094 s 59.996094 26.863282 59.996094 59.996094 z m 0 0"
       id="path10" /></clipPath><clipPath
     id="l"><path
       d="m 123.996094 64 c 0 33.132812 -26.863282 59.996094 -59.996094 59.996094 s -59.996094 -26.863282 -59.996094 -59.996094 s 26.863282 -59.996094 59.996094 -59.996094 s 59.996094 26.863282 59.996094 59.996094 z m 0 0"
       id="path12" /></clipPath><linearGradient
     id="m"
     gradientTransform="matrix(0.192655,0,0,0.25,-296.65367,26.054684)"
     gradientUnits="userSpaceOnUse"
     x1="48"
     x2="464"
     y1="44"
     y2="44"><stop
       offset="0"
       stop-color="#3d3846"
       id="stop12" /><stop
       offset="0.05"
       stop-color="#77767b"
       id="stop13" /><stop
       offset="0.1"
       stop-color="#3d3846"
       id="stop14" /><stop
       offset="0.899999"
       stop-color="#3d3846"
       id="stop15" /><stop
       offset="0.95"
       stop-color="#77767b"
       id="stop16" /><stop
       offset="1"
       stop-color="#3d3846"
       id="stop17" /></linearGradient><linearGradient
     id="n"
     gradientUnits="userSpaceOnUse"
     x1="-136.212692"
     x2="300.910431"
     y1="979.674214"
     y2="862.547383"
     gradientTransform="matrix(0.237266,0,0,0.237266,-93.865137,-124.14174)"><stop
       offset="0"
       stop-color="#9141ac"
       id="stop18" /><stop
       offset="0.227896"
       stop-color="#33d17a"
       id="stop19" /><stop
       offset="0.510722"
       stop-color="#f5c211"
       id="stop20" /><stop
       offset="0.789213"
       stop-color="#e66100"
       id="stop21" /><stop
       offset="1"
       stop-color="#26a269"
       id="stop22" /></linearGradient><linearGradient
     id="o"
     gradientUnits="userSpaceOnUse"
     x1="85.99996119305"
     x2="109.44605422979"
     y1="25.68808626232"
     y2="24.83250689333"
     gradientTransform="translate(-335.40621,15.05469)"><stop
       offset="0"
       stop-color="#787878"
       id="stop23" /><stop
       offset="1"
       stop-color="#787878"
       stop-opacity="0"
       id="stop24" /></linearGradient><g
     id="g90"
     transform="matrix(0.92758575,0,0,0.92758575,134.28998,9.2796912)"><ellipse
       style="fill:url(#linearGradient82);fill-opacity:1;stroke-width:6.00839;stroke-linecap:round;stroke-linejoin:round"
       id="ellipse77"
       cx="-75.777191"
       cy="62.992184"
       rx="59.777195"
       ry="59.994141" /><ellipse
       style="fill:#1c71d8;fill-opacity:1;stroke-width:6.00839;stroke-linecap:round;stroke-linejoin:round"
       id="path73"
       cx="-75.777191"
       cy="54.992184"
       rx="59.777195"
       ry="59.994141" /><path
       id="ellipse87"
       style="fill:#c2daf7;fill-opacity:1;stroke-width:6.00839;stroke-linecap:round;stroke-linejoin:round"
       d="m -75.777344,-5.0019531 a 59.777195,59.994141 0 0 0 -59.777346,59.9941411 59.777195,59.994141 0 0 0 0.0645,1 59.777195,59.994141 0 0 1 59.712886,-58.9941411 59.777195,59.994141 0 0 1 59.712891,58.9941411 59.777195,59.994141 0 0 0 0.06445,-1 59.777195,59.994141 0 0 0 -59.777344,-59.9941411 z" /><path
       id="path80"
       style="fill:#1a5fb4;fill-opacity:1;stroke-width:1.0559"
       d="m -89.347656,3.4414062 c -0.517533,1.7331423 -2.050846,3.0396294 -3.933594,3.1542969 -2.409078,0 -4.363281,1.9854136 -4.363281,4.4335939 v 2 2 c 0,-2.448181 1.954203,-4.433594 4.363281,-4.433594 2.417357,-0.147227 4.258158,-2.2602037 4.113281,-4.7167968 -0.0554,-0.1492819 -0.115169,-0.2947467 -0.179687,-0.4375 -0.0078,0.026262 -0.02099,0.050108 -0.0293,0.076172 0.164118,-0.5146829 0.24275,-1.0661219 0.208984,-1.6386719 -0.0554,-0.1492819 -0.115169,-0.2947465 -0.179687,-0.4375 z m 31.773437,7.0761718 c -0.05912,0.324343 -0.08984,0.658575 -0.08984,1 0,0.365471 0.03794,0.722625 0.105468,1.06836 -0.0045,-0.02309 -0.0114,-0.04517 -0.01563,-0.06836 -0.05912,0.324343 -0.08984,0.658575 -0.08984,1 0,3.064583 2.48837,5.548828 5.548828,5.548828 h 18.93164 c 0.02542,0 0.05081,2.37e-4 0.07617,0 l 2.111328,2.183594 4.109375,-0.779297 a 59.777195,59.994141 0 0 0 -5.134765,-6.353515 l -1,0.947265 a 59.777195,59.994141 0 0 0 -0.679688,-0.6875 l -1.361328,0.689453 h -17.052734 c -2.719493,0 -4.987434,-1.961573 -5.458985,-4.548828 z m -40.070312,13.306641 c 0,4.761752 -3.794999,8.615234 -8.476559,8.615234 -4.68156,0 -8.47852,3.857689 -8.47852,8.615235 0,4.761752 -3.795,8.615234 -8.47656,8.615234 -4.68156,0 -8.47852,3.857688 -8.47852,8.615234 0,0.338299 0.0194,0.671946 0.0566,1 -0.0374,0.328178 -0.0566,0.661656 -0.0566,1 0,0.338407 0.0193,0.671844 0.0566,1 0.48767,-4.286749 4.07303,-7.615234 8.42188,-7.615234 4.68156,0 8.47656,-3.853482 8.47656,-8.615234 0,-4.757546 3.79696,-8.615235 8.47852,-8.615235 4.68156,0 8.476559,-3.853482 8.476559,-8.615234 v -2 z m 17.646484,2.265625 v 2 2 c 0,3.386302 2.746511,6.134765 6.132813,6.134765 3.390426,0 6.132812,-2.748463 6.132812,-6.134765 v -2 -2 c 0,3.386302 -2.742386,6.134765 -6.132812,6.134765 -3.386302,0 -6.132813,-2.748463 -6.132813,-6.134765 z m 63.914063,32.080078 c -1.001311,0.47531 -2.103305,0.730857 -3.232422,0.728516 l -11.945313,-0.0293 c -3.423426,-0.0041 -6.711664,1.348606 -9.132812,3.765625 -2.42527,2.417019 -3.785157,5.699624 -3.785157,9.123046 v 2 2 c 0,-3.423422 1.359887,-6.706027 3.785157,-9.123046 2.421148,-2.417019 5.709386,-3.76975 9.132812,-3.765625 l 11.945313,0.0293 c 0.992714,0.002 1.966081,-0.192327 2.867187,-0.5625 a 59.777195,59.994141 0 0 0 0.365235,-4.166016 z m -56.931641,3.207031 v 2 2 c 0,4.260719 3.456078,7.716797 7.716797,7.716797 2.36691,0.697021 4.007808,2.677611 4.382812,4.960938 0.110879,-0.676178 0.106699,-1.350223 0,-2 0.500339,-3.051994 -1.342484,-6.065604 -4.382812,-6.960938 -4.260719,0 -7.716797,-3.456078 -7.716797,-7.716797 z m 11.927734,24.640625 v 2 2 c 0,4.673179 3.787759,8.458984 8.460938,8.458984 4.669055,-0.0041 8.451391,-3.789929 8.447265,-8.458984 v -1.984375 c 6e-6,-0.0053 5e-6,-0.01037 0,-0.01563 v -1.984375 c -0.0041,4.662041 -3.783298,8.439264 -8.447265,8.443359 -4.673179,0 -8.460938,-3.785805 -8.460938,-8.458984 z" /><path
       id="path78"
       style="fill:#1a6f48;fill-opacity:1;stroke-width:1.0559"
       d="m -89.347656,1.4414062 c -0.517533,1.7331423 -2.050846,3.0396294 -3.933594,3.1542969 -2.409078,0 -4.363281,1.9854134 -4.363281,4.4335938 v 2.0000001 c 0,-2.4481807 1.954203,-4.4335939 4.363281,-4.4335939 2.417357,-0.1472275 4.258158,-2.2602039 4.113281,-4.7167969 -0.0554,-0.1492819 -0.115169,-0.2947468 -0.179687,-0.4375 z m 31.773437,7.0761719 c -0.05912,0.3243433 -0.08984,0.6585744 -0.08984,1 0,3.0645829 2.48837,5.5488279 5.548828,5.5488279 h 18.93164 c 0.05418,0 0.108308,-3.17e-4 0.16211,-0.002 l 1.648437,-0.236328 a 59.777195,59.994141 0 0 0 -2.328125,-2.451172 l -1.361328,0.689453 h -17.052734 c -2.719493,0 -4.987434,-1.961573 -5.458985,-4.5488279 z M -97.644531,21.824219 c 0,4.761752 -3.794999,8.615234 -8.476559,8.615234 -4.68156,0 -8.47852,3.857689 -8.47852,8.615235 0,4.761752 -3.795,8.615234 -8.47656,8.615234 -4.68156,0 -8.47852,3.857688 -8.47852,8.615234 0,0.338407 0.0193,0.671844 0.0566,1 0.48767,-4.286749 4.07303,-7.615234 8.42188,-7.615234 4.68156,0 8.47656,-3.853482 8.47656,-8.615234 0,-4.757546 3.79696,-8.615235 8.47852,-8.615235 4.68156,0 8.476559,-3.853482 8.476559,-8.615234 z m 17.646484,2.265625 v 2 c 0,3.386302 2.746511,6.134765 6.132813,6.134765 3.390426,0 6.132812,-2.748463 6.132812,-6.134765 v -2 c 0,3.386302 -2.742386,6.134765 -6.132812,6.134765 -3.386302,0 -6.132813,-2.748463 -6.132813,-6.134765 z m -55.494143,31.93164 a 59.777195,59.994141 0 0 0 -0.0625,0.970704 59.777195,59.994141 0 0 0 0.0625,2.751953 59.777195,59.994141 0 0 1 0.0898,-1.261719 59.777195,59.994141 0 0 1 -0.0898,-2.460938 z m 119.437502,0.134766 c -1.009076,0.484266 -2.121601,0.744553 -3.261718,0.742188 l -11.945313,-0.0293 c -3.423426,-0.0041 -6.711664,1.348606 -9.132812,3.765625 -2.42527,2.417019 -3.785157,5.699624 -3.785157,9.123046 v 2 c 0,-3.423422 1.359887,-6.706027 3.785157,-9.123046 2.421148,-2.417019 5.709386,-3.76975 9.132812,-3.765625 l 11.945313,0.0293 c 1.082386,0.0022 2.141534,-0.230097 3.109375,-0.667969 a 59.777195,59.994141 0 0 0 0.01172,-0.238281 59.777195,59.994141 0 0 1 0.01953,0.224609 c 0.0549,-0.02515 0.109762,-0.05165 0.164062,-0.07813 A 59.777195,59.994141 0 0 0 -16,56.992188 59.777195,59.994141 0 0 0 -16.054688,56.15625 Z m -56.960937,3.220703 v 2 c 0,4.260719 3.456078,7.716797 7.716797,7.716797 2.36691,0.697021 4.007808,2.677611 4.382812,4.960938 0.500475,-3.052076 -1.342404,-6.065581 -4.382812,-6.960938 -4.260719,0 -7.716797,-3.456078 -7.716797,-7.716797 z m 11.927734,24.640625 v 2 c 0,4.673179 3.787759,8.458984 8.460938,8.458984 4.669055,-0.0041 8.451391,-3.789929 8.447265,-8.458984 v -1.984375 c -0.0041,4.662041 -3.783298,8.439264 -8.447265,8.443359 -4.673179,0 -8.460938,-3.785805 -8.460938,-8.458984 z" /><path
       id="path27"
       style="fill:#26a269;fill-opacity:1;stroke-width:1.0559"
       d="m -91.197266,-2.9707031 a 59.777195,59.994141 0 0 0 -44.357424,57.9628911 59.777195,59.994141 0 0 0 20.95508,45.619142 V 73.513672 c 0,-4.757546 -3.795,-8.615235 -8.47656,-8.615234 -4.68156,0 -8.47852,-3.85153 -8.47852,-8.613282 0,-4.757546 3.79696,-8.615234 8.47852,-8.615234 4.68156,0 8.47656,-3.853482 8.47656,-8.615234 0,-4.757546 3.79696,-8.615235 8.47852,-8.615235 4.68156,0 8.476559,-3.853482 8.476559,-8.615234 V 9.0292969 c 0,-2.4481803 1.954203,-4.4335938 4.363281,-4.4335938 2.417357,-0.1472275 4.258158,-2.260204 4.113281,-4.71679685 -0.430495,-1.16003415 -1.143321,-2.12606225 -2.029297,-2.84960935 z m 39.082032,4.9414062 c -3.060458,0 -5.548829,2.482293 -5.548828,5.546875 0,3.0645829 2.48837,5.5488279 5.548828,5.5488279 h 18.93164 c 0.05418,0 0.108308,-4.11e-4 0.16211,-0.002 A 59.777195,59.994141 0 0 0 -47.806641,1.9707031 Z m -21.75,9.2519529 c -3.386302,0 -6.132813,2.746511 -6.132813,6.132813 v 6.734375 c 0,3.386302 2.746511,6.134765 6.132813,6.134765 3.390426,0 6.132812,-2.748463 6.132812,-6.134765 v -6.734375 c 0,-3.386302 -2.742386,-6.132813 -6.132812,-6.132813 z m 24.24414,7.085938 c -4.149353,0 -7.515625,3.364317 -7.515625,7.513672 v 3.205078 c 0,4.149355 -3.364317,7.515625 -7.513672,7.515625 -4.990774,0.371214 -8.736449,4.717992 -8.365234,9.71289 v 13.121094 c 0,4.260719 3.456078,7.716797 7.716797,7.716797 3.291436,0.969281 5.18022,4.421237 4.210937,7.716797 v 9.207031 c 0,4.673179 3.787759,8.458984 8.460938,8.458984 4.669055,-0.0041 8.45139,-3.789929 8.447265,-8.458984 V 69.757812 c 0,-3.423422 1.359887,-6.706027 3.785157,-9.123046 2.421148,-2.417019 5.709386,-3.76975 9.132812,-3.765625 l 11.945313,0.0293 c 1.155916,0.0024 2.28458,-0.262427 3.304687,-0.759766 A 59.777195,59.994141 0 0 0 -16,54.992188 59.777195,59.994141 0 0 0 -28.476562,18.308594 Z" /><path
       id="path89"
       style="baseline-shift:baseline;display:inline;overflow:visible;opacity:1;vector-effect:none;fill:#000000;fill-opacity:0.3;enable-background:accumulate;stop-color:#000000;stop-opacity:1"
       d="m -39.261719,63.330078 v 3.080078 2.38086 21.30664 c 0,5.567755 -4.432247,10.000004 -10,10.000004 H -83.59375 c -6.673834,0 -12,-5.326169 -12,-12.000004 v -0.443359 l -0.09766,-0.431641 c -2.028849,-9.05633 -10.91183,-14.84335 -19.96289,-13.265625 h -11.60742 v 0.908203 l 6.05664,7.091797 h 6.05469 l 0.43164,-0.09961 c 5.10031,-1.142602 10.05436,1.995982 11.21094,7.08789 0.45855,10.599817 9.206741,19.152349 19.914056,19.152349 h 34.332031 c 0.471275,0 0.937906,-0.0186 1.400391,-0.0547 a 59.777195,59.994141 0 0 0 15.52539,-11.837893 c 0.695436,-1.909791 1.074219,-3.968142 1.074219,-6.109375 v -21.304687 -2.38086 -3.080078 z" /><path
       id="path86"
       style="fill:url(#linearGradient89);fill-opacity:1;stroke-width:1.0559"
       d="m -91.197266,-2.9707031 a 59.777195,59.994141 0 0 0 -44.357424,57.9628911 59.777195,59.994141 0 0 0 0.0625,1.029296 59.777195,59.994141 0 0 1 44.294924,-56.99218712 c 0.771962,0.63043556 1.412776,1.44556345 1.84961,2.41210932 0.146954,-0.49212856 0.211727,-1.01921338 0.179687,-1.56249995 -0.430495,-1.16003415 -1.143321,-2.12606225 -2.029297,-2.84960935 z m 39.082032,4.9414062 c -3.060458,0 -5.548831,2.482293 -5.548828,5.546875 0,0.3414252 0.03072,0.6756142 0.08984,1 0.471551,-2.5869096 2.739493,-4.546875 5.458985,-4.546875 h 4.308593 A 59.777195,59.994141 0 0 1 -35.0625,13.066406 h 1.878906 c 0.05418,0 0.108308,-4.11e-4 0.16211,-0.002 A 59.777195,59.994141 0 0 0 -47.806641,1.9707031 Z m -21.75,9.2519529 c -3.386302,0 -6.132813,2.746511 -6.132813,6.132813 v 2 c 0,-3.386302 2.746511,-6.132813 6.132813,-6.132813 3.390426,0 6.132812,2.746511 6.132812,6.132813 v -2 c 0,-3.386302 -2.742386,-6.132813 -6.132812,-6.132813 z m 24.24414,7.085938 c -4.149353,0 -7.515625,3.364317 -7.515625,7.513672 v 2 c 0,-4.149355 3.366272,-7.513672 7.515625,-7.513672 h 21.144532 a 59.777195,59.994141 0 0 1 12.421874,35.847656 c 0.01398,-0.0067 0.02903,-0.01078 0.04297,-0.01758 A 59.777195,59.994141 0 0 0 -16,54.992188 59.777195,59.994141 0 0 0 -28.476562,18.308594 Z m -7.515625,10.71875 c 0,4.149355 -3.364317,7.515625 -7.513672,7.515625 -4.990774,0.371214 -8.736449,4.717992 -8.365234,9.71289 v 0.638672 c 0.329632,-4.400571 3.834325,-8.014553 8.365234,-8.351562 4.149355,0 7.513672,-3.36627 7.513672,-7.515625 z m -74.361331,28.257812 c -0.0373,0.327957 -0.0566,0.661893 -0.0566,1 0,4.761752 3.79696,8.613282 8.47852,8.613282 4.68156,-10e-7 8.47656,3.857688 8.47656,8.615234 v -2 c 0,-4.757546 -3.795,-8.615235 -8.47656,-8.615234 -4.34885,0 -7.93421,-3.323917 -8.42188,-7.613282 z" /><path
       id="path38"
       style="baseline-shift:baseline;display:inline;overflow:visible;opacity:1;vector-effect:none;fill:url(#n);enable-background:accumulate;stop-color:#000000;stop-opacity:1"
       d="m -39.261719,59.329102 v 3.080078 2.38086 21.30664 c 0,5.567755 -4.432247,10 -10,10 H -83.59375 c -6.673834,0 -12,-5.326165 -12,-12 v -0.443359 l -0.09766,-0.431641 c -2.028849,-9.05633 -10.91183,-14.843349 -19.96289,-13.265624 h -11.60742 v 8 h 12.11133 l 0.43164,-0.09766 c 5.10031,-1.142602 10.05436,1.995982 11.21094,7.087891 0.45855,10.599815 9.206745,19.150393 19.91406,19.150393 h 34.332031 c 9.893167,0 18.000001,-8.106833 18,-18.000003 V 64.79004 62.40918 59.329102 Z" /><g
       id="g78"
       transform="translate(0,4)"><g
         fill="#ffffff"
         id="g47"
         transform="translate(-143.26168,-11.52812)"><path
           d="m 72,108 c 0,2.21094 -1.789062,4 -4,4 -2.210938,0 -4,-1.78906 -4,-4 0,-2.21094 1.789062,-4 4,-4 2.210938,0 4,1.78906 4,4 z m 0,0"
           id="path39" /><path
           d="m 88,108 c 0,2.21094 -1.789062,4 -4,4 -2.210938,0 -4,-1.78906 -4,-4 0,-2.21094 1.789062,-4 4,-4 2.210938,0 4,1.78906 4,4 z m 0,0"
           id="path40" /><path
           d="m 104,106 c 0,2.21094 -1.78906,4 -4,4 -2.210938,0 -4,-1.78906 -4,-4 0,-2.21094 1.789062,-4 4,-4 2.21094,0 4,1.78906 4,4 z m 0,0"
           id="path41" /><path
           d="m 112,94 c 0,2.210938 -1.78906,4 -4,4 -2.21094,0 -4,-1.789062 -4,-4 0,-2.210938 1.78906,-4 4,-4 2.21094,0 4,1.789062 4,4 z m 0,0"
           id="path42" /><path
           d="m 112,80 c 0,2.210938 -1.78906,4 -4,4 -2.21094,0 -4,-1.789062 -4,-4 0,-2.210938 1.78906,-4 4,-4 2.21094,0 4,1.789062 4,4 z m 0,0"
           id="path43" /><path
           d="m 56,106 c 0,2.21094 -1.789062,4 -4,4 -2.210938,0 -4,-1.78906 -4,-4 0,-2.21094 1.789062,-4 4,-4 2.210938,0 4,1.78906 4,4 z m 0,0"
           id="path44" /><path
           d="m 48,94 c 0,2.210938 -1.789062,4 -4,4 -2.210938,0 -4,-1.789062 -4,-4 0,-2.210938 1.789062,-4 4,-4 2.210938,0 4,1.789062 4,4 z m 0,0"
           id="path45" /><path
           d="m 40,82 c 0,2.210938 -1.789062,4 -4,4 -2.210938,0 -4,-1.789062 -4,-4 0,-2.210938 1.789062,-4 4,-4 2.210938,0 4,1.789062 4,4 z m 0,0"
           id="path46" /><path
           d="m 27.984375,82 c 0,4.410156 -3.574219,7.984375 -7.984375,7.984375 -4.410156,0 -7.984375,-3.574219 -7.984375,-7.984375 0,-4.410156 3.574219,-7.988281 7.984375,-7.988281 4.410156,0 7.984375,3.578125 7.984375,7.988281 z m 0,0"
           id="path47" /></g><circle
         style="fill:#ffffff;fill-opacity:1;stroke-width:2.675;stroke-linecap:round;stroke-linejoin:round"
         id="path77"
         cx="-35.261681"
         cy="53.338867"
         r="6.1875" /></g><path
       id="ellipse85"
       style="fill:#a3c7f3;fill-opacity:0.23068;stroke-width:6.00839;stroke-linecap:round;stroke-linejoin:round"
       d="m -135.49023,53.992188 a 59.777195,59.994141 0 0 0 -0.0645,1 59.777195,59.994141 0 0 0 59.777346,59.994142 A 59.777195,59.994141 0 0 0 -16,54.992188 a 59.777195,59.994141 0 0 0 -0.06445,-1 59.777195,59.994141 0 0 1 -59.712891,58.994142 59.777195,59.994141 0 0 1 -59.712889,-58.994142 z" /><path
       d="m -108.88672,28.600933 11.632811,34.910156 7.58985,-6.503906 4.93359,5.921875 c 1.28516,1.542969 3.58203,1.753906 5.125,0.464843 1.53906,-1.285156 1.75,-3.574218 0.46484,-5.117187 l -5,-6 7.25391,-6.21875 z m 0,0"
       id="path48"
       style="fill:#191919;fill-opacity:0.313096" /><path
       id="path49"
       d="m -108.88676,23.690774 v 0.0039 l 1.1543,3.462891 0.77148,2.316406 v 0.002 l 9.707031,29.125 0.002,-0.002 0.002,0.0059 7.58593,-6.503907 4.9336,5.921875 c 0.80322,0.964356 2.00149,1.406556 3.16406,1.289063 0.11626,-0.01164 0.23255,-0.02985 0.34766,-0.05274 0.23021,-0.04597 0.45728,-0.113693 0.67773,-0.205078 0.33068,-0.136854 0.64624,-0.325439 0.93555,-0.566406 0.09658,-0.08065 0.18736,-0.165757 0.27344,-0.253906 0.08542,-0.0876 0.16522,-0.177404 0.24023,-0.271485 3.3e-4,-4.14e-4 -3.3e-4,-0.0015 0,-0.002 0.15019,-0.188523 0.28077,-0.388205 0.38867,-0.597656 2.7e-4,-5.27e-4 -2.7e-4,-0.0014 0,-0.002 0.10778,-0.209438 0.19491,-0.42682 0.25977,-0.650391 1.7e-4,-6.06e-4 -1.8e-4,-0.0013 0,-0.002 0.06474,-0.223568 0.10772,-0.45268 0.1289,-0.683594 6e-5,-6.46e-4 -5e-5,-0.0013 0,-0.002 0.0105,-0.115138 0.01608,-0.231956 0.01563,-0.347656 0,-6.49e-4 0,-0.0013 0,-0.002 -0.001,-0.23206 -0.02475,-0.464128 -0.07031,-0.693359 -1.3e-4,-6.15e-4 1.2e-4,-0.0013 0,-0.002 -0.11453,-0.574612 -0.36988,-1.12915 -0.77149,-1.611328 l -5,-6 5.66406,-4.855468 1.51563,-1.300782 0.07422,-0.0625 -0.07422,-0.03906 -6,-3.273438 -0.91211,-0.498047 -1.51562,-0.826171 -9.57227,-5.220704 v -0.002 l -1.42578,-0.777343 h -0.002 l -10.572271,-5.765626 v -0.0039 z"
       style="fill:#ffffff;fill-opacity:1" /><path
       d="m -108.88672,23.694683 11.632811,34.90625 7.58985,-6.5 4.93359,5.917968 c 1.28516,1.542969 3.58203,1.753907 5.125,0.46875 0.12109,-0.105468 0.23828,-0.21875 0.34375,-0.339843 z m 0,0"
       fill="#deddda"
       id="path51"
       style="fill:#bbb9b3;fill-opacity:1" /></g></svg>
