<?xml version="1.0" encoding="UTF-8" standalone="no"?>
<!-- Created with Inkscape (http://www.inkscape.org/) -->

<svg
   width="128"
   height="128"
   viewBox="0 0 128 128"
   version="1.1"
   id="svg5"
   inkscape:version="1.4.2 (ebf0e940d0, 2025-05-08)"
   sodipodi:docname="fallout-4.svg"
   xmlns:inkscape="http://www.inkscape.org/namespaces/inkscape"
   xmlns:sodipodi="http://sodipodi.sourceforge.net/DTD/sodipodi-0.dtd"
   xmlns:xlink="http://www.w3.org/1999/xlink"
   xmlns="http://www.w3.org/2000/svg"
   xmlns:svg="http://www.w3.org/2000/svg">
  <sodipodi:namedview
     id="namedview7"
     pagecolor="#ffffff"
     bordercolor="#666666"
     borderopacity="1"
     inkscape:pageshadow="2"
     inkscape:pageopacity="0.0"
     inkscape:pagecheckerboard="true"
     inkscape:document-units="px"
     showgrid="false"
     inkscape:showpageshadow="false"
     showborder="true"
     inkscape:snap-page="true"
     inkscape:zoom="4.4653988"
     inkscape:cx="4.9267716"
     inkscape:cy="91.145275"
     inkscape:window-width="1920"
     inkscape:window-height="1011"
     inkscape:window-x="0"
     inkscape:window-y="0"
     inkscape:window-maximized="1"
     inkscape:current-layer="g1"
     inkscape:snap-bbox="true"
     inkscape:snap-bbox-midpoints="true"
     inkscape:snap-bbox-edge-midpoints="true"
     inkscape:bbox-nodes="true"
     inkscape:bbox-paths="true"
     inkscape:snap-intersection-paths="true"
     inkscape:object-paths="true"
     inkscape:snap-smooth-nodes="true"
     inkscape:snap-midpoints="true"
     inkscape:deskcolor="#d1d1d1" />
  <defs
     id="defs2">
    <linearGradient
       inkscape:collect="always"
       id="linearGradient408">
      <stop
         style="stop-color:#68b6f5;stop-opacity:1;"
         offset="0"
         id="stop404" />
      <stop
         style="stop-color:#bde0fd;stop-opacity:1;"
         offset="1"
         id="stop406" />
    </linearGradient>
    <linearGradient
       inkscape:collect="always"
       id="linearGradient7939">
      <stop
         style="stop-color:#1565c0;stop-opacity:1"
         offset="0"
         id="stop7935" />
      <stop
         style="stop-color:#1565c0;stop-opacity:1"
         offset="0.28295189"
         id="stop8493" />
      <stop
         style="stop-color:#0a76d8;stop-opacity:1;"
         offset="0.5"
         id="stop8233" />
      <stop
         style="stop-color:#1565c0;stop-opacity:1"
         offset="0.7060551"
         id="stop8751" />
      <stop
         style="stop-color:#1565c0;stop-opacity:1"
         offset="1"
         id="stop7937" />
    </linearGradient>
    <linearGradient
       y2="236"
       x2="96"
       y1="236"
       x1="32"
       gradientTransform="translate(604.81684,170.58641)"
       gradientUnits="userSpaceOnUse"
       id="linearGradient1099"
       xlink:href="#linearGradient1036" />
    <linearGradient
       id="linearGradient1036">
      <stop
         id="stop1032"
         offset="0"
         style="stop-color:#d5d3cf;stop-opacity:1;" />
      <stop
         id="stop1034"
         offset="1"
         style="stop-color:#f6f5f4;stop-opacity:1" />
    </linearGradient>
    <radialGradient
       r="32"
       fy="-76"
       fx="-244"
       cy="-76"
       cx="-244"
       gradientTransform="matrix(0.88333331,0,0,0.88333331,-460.35018,463.11973)"
       gradientUnits="userSpaceOnUse"
       id="radialGradient1103"
       xlink:href="#linearGradient1069" />
    <linearGradient
       id="linearGradient1069">
      <stop
         id="stop1065"
         offset="0"
         style="stop-color:#d5d3cf;stop-opacity:1" />
      <stop
         id="stop1067-1"
         offset="1"
         style="stop-color:#949390;stop-opacity:1" />
    </linearGradient>
    <linearGradient
       gradientUnits="userSpaceOnUse"
       y2="232"
       x2="64"
       y1="262.5"
       x1="64"
       id="linearGradient1027"
       xlink:href="#linearGradient1025"
       gradientTransform="translate(-470.5864,432.81685)" />
    <linearGradient
       id="linearGradient1025">
      <stop
         id="stop1021"
         offset="0"
         style="stop-color:#9a9996;stop-opacity:1" />
      <stop
         id="stop1023"
         offset="1"
         style="stop-color:#77767b;stop-opacity:1" />
    </linearGradient>
    <inkscape:path-effect
       effect="spiro"
       id="path-effect35304-9"
       is_visible="true" />
    <clipPath
       clipPathUnits="userSpaceOnUse"
       id="clipPath1609-7">
      <path
         sodipodi:nodetypes="cccccc"
         inkscape:connector-curvature="0"
         id="path1611-5"
         d="m 252,116 28,-28 v -8 h -36 v 36 z"
         style="fill:#e74747;stroke:none;stroke-width:0.25px;stroke-linecap:butt;stroke-linejoin:miter;stroke-opacity:1" />
    </clipPath>
    <radialGradient
       r="32"
       fy="-76"
       fx="-244"
       cy="-76"
       cx="-244"
       gradientTransform="matrix(0.88333331,0,0,0.88333331,-460.35018,463.11973)"
       gradientUnits="userSpaceOnUse"
       id="radialGradient1103-5"
       xlink:href="#linearGradient1069" />
    <inkscape:path-effect
       effect="spiro"
       id="path-effect35304-9-2"
       is_visible="true" />
    <clipPath
       clipPathUnits="userSpaceOnUse"
       id="clipPath1609-7-7">
      <path
         sodipodi:nodetypes="cccccc"
         inkscape:connector-curvature="0"
         id="path1611-5-0"
         d="m 252,116 28,-28 v -8 h -36 v 36 z"
         style="fill:#e74747;stroke:none;stroke-width:0.25px;stroke-linecap:butt;stroke-linejoin:miter;stroke-opacity:1" />
    </clipPath>
    <clipPath
       clipPathUnits="userSpaceOnUse"
       id="clipPath744">
      <rect
         style="fill:#1e88e5;fill-opacity:1;stroke-width:0.264583"
         id="rect746"
         width="541.86664"
         height="541.86664"
         x="0"
         y="1.5987212e-14"
         rx="79.375"
         ry="79.375" />
    </clipPath>
    <clipPath
       clipPathUnits="userSpaceOnUse"
       id="clipPath62">
      <rect
         style="fill:#1e88e5;fill-opacity:1;stroke-width:0.264583"
         id="rect64"
         width="541.86664"
         height="541.86664"
         x="2.2507105e-05"
         y="-0.42205024"
         rx="79.375"
         ry="79.375" />
    </clipPath>
    <radialGradient
       r="32"
       fy="-76"
       fx="-244"
       cy="-76"
       cx="-244"
       gradientTransform="matrix(0.88333331,0,0,0.88333331,-460.35018,463.11973)"
       gradientUnits="userSpaceOnUse"
       id="radialGradient1103-6"
       xlink:href="#linearGradient1069" />
    <inkscape:path-effect
       effect="spiro"
       id="path-effect35304-9-20"
       is_visible="true" />
    <clipPath
       clipPathUnits="userSpaceOnUse"
       id="clipPath1609-7-2">
      <path
         sodipodi:nodetypes="cccccc"
         inkscape:connector-curvature="0"
         id="path1611-5-3"
         d="m 252,116 28,-28 v -8 h -36 v 36 z"
         style="fill:#e74747;stroke:none;stroke-width:0.25px;stroke-linecap:butt;stroke-linejoin:miter;stroke-opacity:1" />
    </clipPath>
    <linearGradient
       inkscape:collect="always"
       xlink:href="#linearGradient7939"
       id="linearGradient7941"
       x1="9"
       y1="70"
       x2="119"
       y2="70"
       gradientUnits="userSpaceOnUse"
       gradientTransform="translate(0,-2)" />
    <radialGradient
       r="32"
       fy="-76"
       fx="-244"
       cy="-76"
       cx="-244"
       gradientTransform="matrix(0.88333331,0,0,0.88333331,-460.35018,463.11973)"
       gradientUnits="userSpaceOnUse"
       id="radialGradient1103-56"
       xlink:href="#linearGradient1069" />
    <inkscape:path-effect
       effect="spiro"
       id="path-effect35304-9-7"
       is_visible="true" />
    <clipPath
       clipPathUnits="userSpaceOnUse"
       id="clipPath1609-7-0">
      <path
         sodipodi:nodetypes="cccccc"
         inkscape:connector-curvature="0"
         id="path1611-5-9"
         d="m 252,116 28,-28 v -8 h -36 v 36 z"
         style="fill:#e74747;stroke:none;stroke-width:0.25px;stroke-linecap:butt;stroke-linejoin:miter;stroke-opacity:1" />
    </clipPath>
    <clipPath
       clipPathUnits="userSpaceOnUse"
       id="clipPath744-3">
      <rect
         style="fill:#1e88e5;fill-opacity:1;stroke-width:0.264583"
         id="rect746-6"
         width="541.86664"
         height="541.86664"
         x="0"
         y="1.5987212e-14"
         rx="79.375"
         ry="79.375" />
    </clipPath>
    <clipPath
       clipPathUnits="userSpaceOnUse"
       id="clipPath62-0">
      <rect
         style="fill:#1e88e5;fill-opacity:1;stroke-width:0.264583"
         id="rect64-6"
         width="541.86664"
         height="541.86664"
         x="2.2507105e-05"
         y="-0.42205024"
         rx="79.375"
         ry="79.375" />
    </clipPath>
    <linearGradient
       inkscape:collect="always"
       xlink:href="#linearGradient408"
       id="linearGradient410"
       x1="64"
       y1="115"
       x2="64"
       y2="5"
       gradientUnits="userSpaceOnUse" />
    <clipPath
       clipPathUnits="userSpaceOnUse"
       id="clipPath86">
      <circle
         style="display:inline;fill:#2094f4;fill-opacity:1;stroke-width:3.4124"
         id="circle86"
         cx="31.574884"
         cy="54.465416"
         r="187.68188" />
    </clipPath>
  </defs>
  <g
     inkscape:groupmode="layer"
     id="layer2"
     inkscape:label="Layer 1">
    <path
       id="circle1035"
       style="display:inline;fill:url(#linearGradient7941);fill-opacity:1"
       d="M 64,5 A 55,55 0 0 0 9,60 v 8 a 55,55 0 0 0 55,55 55,55 0 0 0 55,-55 V 60 A 55,55 0 0 0 64,5 Z" />
    <circle
       style="display:inline;fill:url(#linearGradient410);fill-opacity:1"
       id="path953"
       cx="64"
       cy="60"
       r="55" />
    <circle
       style="display:inline;fill:#2094f4;fill-opacity:1;stroke-width:0.961244"
       id="circle342"
       cx="64"
       cy="60"
       r="52.868427" />
    <g
       id="g1"
       transform="matrix(0.28169168,0,0,0.28169168,55.105618,44.657545)"
       clip-path="url(#clipPath86)">
      <path
         fill="#f8ec74"
         opacity="1"
         stroke="none"
         d="m 212.14977,8.75321 c -5.36893,7.50565 -12.66501,19.46216 -18.11478,26.90867 -12.77402,17.45416 -25.5817,34.88401 -38.44681,52.27113 -10.58276,14.30255 -21.30835,28.49945 -31.89685,42.79779 -12.12225,16.36945 -24.11725,32.83316 -36.25275,49.19272 -11.17541,15.06528 -22.47015,30.04196 -33.69958,45.06723 -5.05438,6.76288 -10.0777,13.54898 -15.28845,20.60953 -24.8219,1.52719 -48.66983,-2.23075 -71.93427,-11.41425 2.29424,-6.39502 4.95452,-12.4946 7.34673,-18.6976 4.21931,-10.94061 8.27508,-21.94431 12.7549,-33.17777 4.15449,2.39509 7.65968,5.68976 11.80508,7.58194 14.89017,6.79663 29.97816,5.14484 44.60071,-0.81713 17.90997,-7.30237 31.17999,-18.97712 34.08398,-39.48117 0.20423,-1.44217 1.39746,-2.89179 2.45371,-4.0412 5.73373,-6.23929 11.52942,-12.4234 17.41034,-18.52375 0.92218,-0.95657 2.34176,-1.85751 3.61316,-1.98822 13.26648,-1.36392 23.71624,-10.37957 26.21505,-23.49661 1.35093,-7.0914 1.008,-14.11758 -5.45803,-19.11642 1.18344,-1.694 2.41683,-3.2721 3.43981,-4.97647 1.02417,-1.7063 1.86924,-3.52362 2.73942,-5.31821 9.3504,-19.28285 14.18567,-41.64932 14.27662,-63.25134 0.77361,-0.0205 0.81769,-0.0226 4.21098,-0.0233 1.46595,0.005 3.93224,0.0169 5.73171,0.0202 17.55114,0.0321 30.30563,0.011 47.85546,0.16533 1.78757,0.0157 9.08926,-0.19471 12.55386,-0.29113 z"
         id="path4"
         sodipodi:nodetypes="csssssccscssscssscscccsscc" />
      <path
         fill="#f8ec75"
         opacity="1"
         stroke="none"
         d="m 110.09447,-122.01793 c -6.75961,14.46225 -13.80795,28.70053 -20.88248,42.92578 -1.58105,3.1791 -3.25397,6.31251 -5.35464,9.83755 -8.7432,-0.46015 -16.55121,-2.27485 -22.0875,-9.29888 -0.90411,-1.14709 -2.23208,-1.98919 -3.44537,-2.85896 -9.75113,-6.99035 -16.62143,-6.61022 -25.44975,1.51251 -2.31989,2.13447 -4.66335,4.33286 -6.53394,6.84583 -3.04219,4.08692 -7.11769,5.77887 -11.94517,6.29003 -8.52225,0.90239 -17.04053,1.8424 -25.56046,2.76667 3.83594,-5.00381 7.47612,-10.17311 11.54216,-14.98239 C 16.71604,-98.305149 33.18656,-117.51908 49.8008,-137 c 21.08725,0.9327 40.87878,6.49591 60.29367,14.98207 z"
         id="path5" />
      <path
         fill="#f7ec75"
         opacity="1"
         stroke="none"
         d="m -71.94377,6.95896 c 2.27087,4.61867 4.36499,9.31891 6.05359,14.16059 0.62854,1.80223 1.04114,4.2708 0.31036,5.86696 -10.10722,22.07592 -13.46536,45.08526 -10.17083,69.52691 -23.9218,0.42307 -47.79791,0.42307 -73.24935,0.42307 7.10309,-8.50775 13.26856,-15.98422 19.53231,-23.37741 17.53903,-20.70159 35.10903,-41.37697 52.70123,-62.03337 1.35724,-1.59363 2.98362,-2.95804 4.82269,-4.56675 z"
         id="path7" />
      <path
         fill="#fbe9d5"
         opacity="1"
         stroke="none"
         d="M 4.6354745,177.22615 C -22.678386,171.14323 -44.995794,155.87363 -57.960434,131.27793 -75.949894,97.149511 -73.32175,61.16265 -57.85138,25.89018 c 2.38198,-5.43088 4.95432,-10.83382 8.03118,-15.88904 3.17973,-5.22426 4.873391,-12.5153638 12.006851,-14.0509638 3.86109,-0.83116 11.499798,-8.3322682 14.593208,-11.2335182 4.72661,-4.43295 5.495868,-6.542365 10.097758,-11.118975 5.1225602,-5.09442 10.6543532,-5.397643 16.3724832,-1.442343 9.5450698,6.60245 17.7389348,4.196036 27.6066748,0.017 3.84585,-1.62874 10.631362,0.458036 15.344132,1.052336 2.08392,6.71809 4.677799,13.960008 6.231239,20.2186884 0.9621,3.87625 11.308733,50.5480866 11.028952,62.2729746 -0.140631,5.893492 -0.276441,16.326709 -0.388311,19.989609 -0.39811,13.03131 6.198564,23.363706 2.737834,36.352746 -3.38015,12.68665 -7.70022,24.74362 -14.86447,35.72205 -6.21982,9.53122 -18.1438,17.94617 -28.17596,23.61994 -4.34401,2.45682 -1.739586,10.49325 -17.4825565,6.25922"
         id="path13"
         sodipodi:nodetypes="csssssssscsscsssc" />
      <path
         fill="#f0d7b8"
         opacity="1"
         stroke="none"
         d="m 50.92162,7.13754 c -0.42383,-4.00986 -0.40924,-8.12856 -1.37134,-12.00481 -1.55344,-6.25868 -4.962744,-16.000763 -6.756444,-22.470653 4.52512,2.81241 11.955661,5.292515 15.322061,9.276615 4.84881,5.73855 9.103357,9.3018302 15.885617,7.70491 5.32019,-1.25266 12.432346,-3.949298 17.873726,-4.470858 6.2962,-0.60352 9.62374,5.645806 12.12621,11.436836 2.36173,5.46537 1.23459,11.12838 -3.41858,15.46703 -1.9212,1.79137 -4.17309,3.33179 -6.49945,4.56053 -3.44318,1.81867 11.66571,7.363964 15.23629,9.995757 1.57613,1.161726 11.18711,9.010065 13.62113,21.201304 3.21451,16.100465 -1.208,37.33525 -4.97426,36.639635 0.89978,1.38375 1.56301,6.857541 2.27865,7.625421 6.26391,6.72122 1.77834,10.588873 -2.2657,18.765203 -4.19241,8.47629 -12.40309,11.20155 -21.948739,11.5695 -1.95007,0.0752 -6.10369,6.56535 -7.13994,8.02213 -10.8512,15.25477 -23.510021,19.13466 -39.943281,28.38766 -0.66974,0.37704 -1.17197,1.05154 -2.54242,2.31723 7.73776,2.01565 19.701975,-6.64836 25.739725,-8.89879 -1.219746,10.25223 -13.29251,23.89362 -27.624571,30.33095 -14.110668,6.33789 -30.447928,5.58899 -36.149034,0.85009 5.67605,-1.31564 11.43727,-2.651 17.19851,-3.98636 -0.0408,-0.35971 -0.0815,-0.71942 -0.12229,-1.07913 -6.25621,-0.50427 -12.51242,-1.00854 -19.09471,-1.72973 3.83974,-2.98874 7.85724,-6.02286 12.20125,-8.47968 10.03216,-5.67377 17.74003,-13.66711 23.95985,-23.19833 7.16425,-10.97843 11.48432,-23.0354 14.86447,-35.72205 3.46073,-12.98904 2.345,-25.99164 2.74311,-39.02295 0.1119,-3.6629 0.24771,-7.35034 -0.0333,-10.99524 -0.90133,-11.69354 -1.99267,-23.37245 -2.6683,-35.59306 0.2139,-2.60782 0.68518,-4.97936 -0.16904,-6.68836 -1.72955,-3.46031 -4.17749,-6.56152 -6.32925,-9.8108"
         id="path14"
         sodipodi:nodetypes="cscsssssssscsssssccsccccssssccsc" />
      <path
         fill="#f7ea73"
         opacity="1"
         stroke="none"
         d="m 38.463483,-80.187348 c 9.68018,9.21876 15.988091,34.145037 8.835651,45.313257 -3.32208,1.01382 -10.006084,-1.510069 -12.768824,-0.253079 -5.43973,2.47497 -10.67983,5.40062 -15.93772,8.25899 -3.41,1.8538 -6.39422,1.67245 -9.77362,-0.44236 -12.64661,-7.9142 -16.84929,-7.39894 -27.37063,3.09517 -4.23807,4.22713 -8.1852,8.7443 -12.34006,13.0569 -5.64293,5.85721 -13.438,8.06392 -19.67415,5.1644 -2.27255,-1.05659 -4.18042,-3.10591 -5.9585,-4.98288 -9.4891,-10.01678 -8.15681,-31.30499 2.40204,-39.72784 4.76927,14.89145 18.52301,18.20051 30.35123,7.32687 4.77272,-4.38754 9.58797,-8.72923 14.41267,-13.05969 6.10912,-5.48328 12.82947,-6.15302 20.38994,-3.10303 10.05599,4.05669 10.70349,3.71742 17.44756,-4.9716 2.65191,-3.4167 7.032923,-12.124978 9.984413,-15.675108 z"
         id="path16"
         sodipodi:nodetypes="ccssssssccssssc" />
      <path
         fill="#ebe476"
         opacity="1"
         stroke="none"
         d="m -65.1741,7.02069 c 0.32097,-4.03707 0.26221,-7.77968 1.20694,-11.24904 0.90928,-3.33916 3.25999,-4.4589 6.35806,-1.68149 2.21001,1.98123 4.62306,3.73599 7.30592,5.87982 -3.32974,5.6035 -6.79513,11.43526 -10.99552,18.50395 -1.5942,-4.61149 -2.70525,-7.82539 -3.8754,-11.45324 z"
         id="path17" />
      <path
         fill="#161311"
         opacity="1"
         stroke="none"
         d="m 40.05672,111.8012 c -2.44708,-0.23867 -4.97875,-0.72882 -6.90511,0.1334 -9.08148,4.06485 -17.83285,8.89633 -27.01364,12.70257 -11.29912,4.68451 -22.54301,3.19071 -33.2334,-2.40014 -4.55462,-2.38199 -9.00616,-5.01246 -13.28201,-7.86371 -5.88498,-3.92429 -5.79457,-4.05985 -8.08896,3.49219 -2.87886,-5.47443 -5.50532,-10.13572 -7.73999,-14.97776 -0.49252,-1.06723 -0.0444,-3.1337 0.7446,-4.12228 2.45206,-3.0723 5.27618,-5.84763 7.95451,-8.73661 1.25269,3.06092 1.65255,6.31824 3.49295,7.91019 1.94045,1.67847 5.29264,1.65964 7.96514,2.56748 20.77723,7.05789 40.75784,1.79379 60.69314,-3.92176 3.19951,-0.91729 4.60779,-3.06179 3.31143,-6.51065 -0.56491,-1.50287 -0.83932,-3.1149 -1.24568,-4.67736 0.34229,-0.29325 0.68459,-0.58649 1.02687,-0.87973 2.70917,2.18124 5.48314,4.28729 8.11672,6.55627 14.60852,12.58621 12.67532,6.76465 7.95645,25.44617 -0.41571,1.64575 -1.18536,3.20211 -1.79059,4.79998 -0.58938,-0.0766 -1.17874,-0.15313 -1.76813,-0.2297 0,-2.97232 0,-5.94461 -0.1943,-9.28855 m -30.34604,5.41516 c 7.38248,-3.01226 14.82989,-5.87994 22.09894,-9.1448 1.68608,-0.75733 2.76364,-2.86951 4.12118,-4.35828 -1.94798,-1.27111 -3.76408,-3.20514 -5.88115,-3.62634 -2.10527,-0.41879 -4.60865,0.40753 -6.7733,1.16016 -21.58056,7.50317 -43.24421,8.24774 -65.1437,1.36105 -1.65221,-0.51956 -3.81005,0.56876 -5.73284,0.90964 1.1736,1.76898 1.94744,4.28958 3.59563,5.16623 4.97156,2.64419 10.28763,4.63876 15.46104,6.90564 12.26128,5.37274 24.77382,5.69186 38.2542,1.6267 z"
         id="path21" />
      <path
         fill="#14100c"
         opacity="1"
         stroke="none"
         d="m -12.60525,64.62493 c -0.13712,2.95667 -0.46413,5.66578 0.0993,8.17499 0.41159,1.83289 2.26051,3.29733 2.9833,5.11868 0.75333,1.89829 0.92452,4.02759 1.35024,6.05594 -2.92928,-0.212 -7.16786,0.71146 -8.53012,-0.85943 -3.40879,-3.93082 -5.73279,-8.88922 -7.98618,-13.67356 -0.55972,-1.18838 0.29591,-3.76248 1.36038,-4.88363 8.96425,-9.44164 17.1688,-19.40155 23.08843,-31.09984 0.46141,-0.91182 1.657,-1.4521 2.51137,-2.16505 0.47883,0.16015 0.95768,0.32031 1.43652,0.48046 -0.45541,1.99936 -0.50227,4.21723 -1.43497,5.96135 -4.7698,8.9195 -9.76811,17.71682 -14.87829,26.89009 z"
         id="path22" />
      <path
         fill="#100c09"
         opacity="1"
         stroke="none"
         d="m 31.07027,46.94918 c 0.97166,-3.88806 1.59057,-7.50407 3.08053,-10.716 0.6494,-1.3999 3.19788,-2.86005 4.67878,-2.67258 1.52996,0.1937 3.46893,2.10218 4.08151,3.70032 2.12054,5.53212 1.70441,11.16495 -1.5044,16.1917 -1.01315,1.58717 -3.35754,3.36705 -4.95263,3.24397 -1.56291,-0.12056 -3.31351,-2.33859 -4.29978,-4.03301 -0.85629,-1.47116 -0.75898,-3.49739 -1.08401,-5.7144 z"
         id="path23" />
      <path
         fill="#110e0a"
         opacity="1"
         stroke="none"
         d="m -35.7964,28.12161 c 2.05522,2.00194 4.53859,3.78131 5.25735,6.10623 1.63244,5.28035 0.66185,10.58565 -2.63465,15.13211 -2.54137,3.50501 -5.78077,3.29683 -8.02067,-0.19418 -4.01931,-6.26441 -1.40647,-17.19377 5.39797,-21.04416 z"
         id="path24" />
      <path
         fill="#130e0a"
         opacity="1"
         stroke="none"
         d="m 50.6201,6.98736 c 2.45328,3.39946 4.90122,6.50067 6.63077,9.96098 0.85422,1.709 0.38294,4.08054 0.1691,6.25643 -6.99588,-4.1863 -13.64945,-8.47673 -21.3942,-13.47081 2.37537,-2.52178 4.4682,-5.89403 7.48996,-7.39078 1.22504,-0.60683 4.47458,2.87347 7.10437,4.64418 z"
         id="path25" />
      <path
         fill="#15100c"
         opacity="1"
         stroke="none"
         d="m -24.24489,0.46844 c 3.96172,7.12575 2.20407,10.23055 -5.1508,10.03459 -4.05429,-0.10803 -8.11381,-0.0194 -12.17099,-0.0194 -0.17068,-0.68566 -0.34138,-1.37132 -0.51207,-2.05698 5.83212,-2.71144 11.66426,-5.42288 17.83386,-7.95825 z"
         id="path26" />
      <path
         fill="#191311"
         opacity="1"
         stroke="none"
         d="m -20.87776,132.5393 c 4.55518,-0.20199 8.72214,-0.69284 12.84438,-0.44372 1.73503,0.10483 3.37565,1.7724 5.05918,2.72961 -1.49005,1.46726 -2.7601,3.8028 -4.50959,4.2461 -6.35692,1.61071 -11.49794,-1.21744 -16.51503,-5.74259 1.2469,-0.35794 1.98085,-0.56863 3.12106,-0.7894 z"
         id="path27" />
      <path
         fill="#231911"
         opacity="1"
         stroke="none"
         d="m 92.72563,55.66152 c 7.44821,3.99878 11.83765,9.84406 14.20328,18.99946 -1.93118,-1.21482 -2.68252,-1.51438 -3.20242,-2.042 -4.02188,-4.08133 -7.9787,-8.22686 -11.999,-12.30981 -1.89678,-1.92635 -3.32406,-3.6814 0.99814,-4.64765 z"
         id="path28" />
      <path
         fill="#231a13"
         opacity="1"
         stroke="none"
         d="m 91.24297,73.89978 c -0.58161,-1.63123 -0.90378,-3.00009 -1.22595,-4.36893 1.31335,0.22018 3.21609,-0.0267 3.82998,0.74783 1.87244,2.36249 3.38486,5.05234 4.70526,7.77582 0.27256,0.56213 -0.88998,1.82001 -1.39108,2.7572 -0.87039,-0.55542 -1.97101,-0.93387 -2.56259,-1.70352 -1.1799,-1.53503 -2.08032,-3.28491 -3.35562,-5.2084 z"
         id="path29" />
      <path
         fill="#f2f3f3"
         opacity="1"
         stroke="none"
         d="m 9.3317,117.34979 c -13.1014,3.93173 -25.61394,3.61261 -37.87522,-1.76013 -5.17341,-2.26688 -10.48948,-4.26145 -15.46104,-6.90564 -1.64819,-0.87665 -2.42203,-3.39725 -3.59563,-5.16623 1.92279,-0.34088 4.08063,-1.4292 5.73284,-0.90964 21.89949,6.88669 43.56314,6.14212 65.1437,-1.36105 2.16465,-0.75263 4.66803,-1.57895 6.7733,-1.16016 2.11707,0.4212 3.93317,2.35523 5.88115,3.62634 -1.35754,1.48877 -2.4351,3.60095 -4.12118,4.35828 -7.26905,3.26486 -14.71646,6.13254 -22.47792,9.27823 z"
         id="path30" />
      <path
         fill="#d5cf53"
         opacity="1"
         stroke="none"
         d="m 35.863767,-76.455419 c 5.46258,-6.3185 9.157752,-9.235242 16.230482,-5.229802 2.01339,1.14025 4.507451,6.130981 6.072121,7.792311 6.11182,6.4893 14.02399,9.64231 22.32852,11.43763 8.83661,1.91034 15.02731,6.87831 19.58203,14.20508 4.03269,6.48703 8.90628,12.00538 14.27847,17.54367 15.26319,15.73512 21.94797,35.03769 18.36496,57.14799 -1.69281,10.44588 -3.8684,20.81363 -9.48767,30.886 -2.68179,-16.0225 -12.36041,-26.79126 -24.07275,-36.21102 3.55289,-3.21512 6.77197,-6.02149 9.87042,-8.9553 5.62192,-5.32319 6.62753,-11.59094 3.74561,-18.68624 -2.88095,-7.09289 -7.85678,-11.66443 -15.61292,-12.1007 -3.89151,-0.2189 -7.91531,0.53612 -11.7655,1.37361 -3.38898,0.73719 -6.64935,2.12404 -9.91324,3.36417 -4.92886,1.87271 -8.81482,1.28928 -12.10794,-3.43422 -3.41245,-4.8947 -10.196499,-7.528442 -14.281639,-11.886152 -2.21674,-2.36465 -2.378391,-5.922568 -5.008121,-8.324308 6.86337,-11.36811 1.142767,-29.582189 -8.222833,-38.922719 z"
         id="path15"
         sodipodi:nodetypes="cscssssccssssssscc" />
      <path
         fill="#100e0b"
         opacity="1"
         stroke="none"
         d="m -11.37636,-63.75434 c 8.73145,-1.16733 17.24973,-2.10734 25.77198,-3.00973 4.82748,-0.51116 8.90298,-2.20311 11.94517,-6.29003 1.87059,-2.51297 4.21405,-4.71136 6.53394,-6.84583 8.82832,-8.12273 15.69862,-8.50286 25.44975,-1.51251 1.21329,0.86977 2.54126,1.71187 3.44537,2.85896 5.53629,7.02403 13.3443,8.83873 22.03775,9.65287 10.14985,1.62731 15.28699,8.29477 19.15512,16.64911 2.72019,5.87491 6.75711,10.31012 12.51963,14.09917 11.2651,7.40716 16.95123,19.55438 22.48401,31.46454 0.76654,1.65005 1.3262,3.39621 2.10278,5.83084 0.70099,3.7904 1.28088,6.84784 1.80786,10.24485 0.029,0.78533 0.11093,1.2311 0.19281,1.67685 0.20923,21.56134 -5.19827,41.78582 -14.54867,61.06867 -0.87018,1.79459 -1.71525,3.61191 -2.73942,5.31821 -1.02298,1.70437 -2.25637,3.28247 -3.43981,4.97647 6.46603,4.99884 6.80896,12.02502 5.45803,19.11642 -2.49881,13.11704 -12.94857,22.13269 -26.21505,23.49661 -1.2714,0.13071 -2.69098,1.03165 -3.61316,1.98822 -5.88092,6.10035 -11.67661,12.28446 -17.41034,18.52375 -1.05625,1.14941 -2.24948,2.59903 -2.45371,4.0412 -2.90399,20.50405 -16.17401,32.1788 -34.08398,39.48117 -14.62255,5.96197 -29.71054,7.61376 -44.60071,0.81713 -4.1454,-1.89218 -7.65059,-5.18685 -11.75151,-7.98263 -3.31751,-6.15164 -7.55475,-10.3729 -13.7836,-13.76184 -23.12112,-12.57962 -37.74535,-32.28296 -44.99286,-57.50467 -1.23569,-4.30029 -2.20833,-8.67615 -3.45125,-13.78507 -3.48895,-24.78662 -0.13081,-47.79596 9.97641,-69.87188 0.73078,-1.59616 0.31818,-4.06473 -0.31036,-5.86696 -1.6886,-4.84168 -3.78272,-9.54192 -5.71581,-14.29833 -1.14708,-7.73082 0.73163,-14.76516 4.49895,-21.52577 0.89769,-1.61091 1.22908,-4.18803 0.61836,-5.88896 -6.67265,-18.58453 2.6254,-33.42854 19.23972,-40.75984 1.22729,-0.54157 2.70424,-0.51743 4.06818,-0.75681 -1.08698,3.38719 -2.03496,6.33399 -2.97825,9.28227 -1.44262,4.50911 0.78998,7.04155 4.7669,8.33529 5.91326,1.92364 11.1791,0.65518 15.51333,-3.86585 4.8046,-5.01167 9.53067,-10.09863 14.50244,-15.39589 m 47.76853,-11.04111 c -2.63689,3.42837 -5.26119,6.86651 -7.9131,10.28321 -6.74407,8.68902 -7.39157,9.02829 -17.44756,4.9716 -7.56047,-3.04999 -14.28082,-2.38025 -20.38994,3.10303 -4.8247,4.33046 -9.63995,8.67215 -14.41267,13.05969 -11.82822,10.87364 -25.58196,7.56458 -30.35123,-7.32687 -10.55885,8.42285 -11.89114,29.71106 -2.40204,39.72784 1.77808,1.87697 3.68595,3.92629 5.9585,4.98288 6.23615,2.89952 14.03122,0.69281 19.67415,-5.1644 4.15486,-4.3126 8.10199,-8.82977 12.34006,-13.0569 10.52134,-10.49411 14.72402,-11.00937 27.37063,-3.09517 3.3794,2.11481 6.36362,2.29616 9.77362,0.44236 5.25789,-2.85837 10.49799,-5.78402 15.93772,-8.25899 2.76274,-1.25699 5.94514,-1.5916 9.51591,-1.94342 2.67011,1.93963 5.71277,3.53003 7.92951,5.89468 4.08514,4.35771 7.98818,8.95897 11.40063,13.85367 3.29312,4.7235 7.17908,5.30693 12.10794,3.43422 3.26389,-1.24013 6.52426,-2.62698 9.91324,-3.36417 3.85019,-0.83749 7.87399,-1.59251 11.7655,-1.37361 7.75614,0.43627 12.73197,5.00781 15.61292,12.1007 2.88192,7.0953 1.87631,13.36305 -3.74561,18.68624 -3.09845,2.93381 -6.31753,5.74018 -9.87042,8.9553 11.71234,9.41976 21.39096,20.18852 24.07275,36.21102 5.61927,-10.07237 7.79486,-20.44012 9.48767,-30.886 3.58301,-22.1103 -3.10177,-41.41287 -18.36496,-57.14799 -5.37219,-5.53829 -10.24578,-11.05664 -14.27847,-17.54367 -4.55472,-7.32677 -10.74542,-12.29474 -19.58203,-14.20508 -8.30453,-1.79532 -16.2167,-4.94833 -22.32852,-11.43763 -1.56467,-1.66133 -3.63712,-2.92783 -5.65051,-4.06808 -7.07273,-4.00544 -10.03193,-3.39649 -16.12369,3.16554 M 108.08675,64.01837 C 102.79259,58.13252 97.43663,52.3 92.26616,46.30743 91.42122,45.32814 91.39458,43.64279 90.9897,42.28378 c 0.42844,-0.33978 0.85691,-0.67957 1.28534,-1.01937 2.5792,1.71476 5.15842,3.42951 7.9802,5.74401 6.06185,8.42555 12.12371,16.8511 17.77044,24.69967 0.90976,-5.45822 -6.22229,-18.3583 -18.08697,-31.48904 -3.28742,-3.53744 -6.57486,-7.07489 -9.86228,-10.61232 0.19992,-0.52266 0.39984,-1.0453 0.5998,-1.56795 1.569,0.32764 3.44882,0.22083 4.64163,1.07425 2.40597,1.72148 4.43832,3.96508 6.89465,6.61791 5.8826,8.85162 11.7652,17.70326 17.48758,26.31383 -0.79129,-11.89725 -5.07077,-22.48787 -15.74948,-30.69913 -3.49854,-2.91187 -6.8732,-5.99176 -10.53085,-8.68773 -3.57056,-2.63182 -2.77952,-4.2021 0.66366,-6.02077 2.32636,-1.22874 4.57825,-2.76916 6.49945,-4.56053 4.65317,-4.33865 5.78031,-10.00166 3.41858,-15.46703 -2.50247,-5.79103 -7.51938,-9.15849 -13.81558,-8.55497 -5.44138,0.52156 -10.88901,1.40461 -16.2092,2.65727 -6.78226,1.59692 -12.00571,0.54285 -16.85452,-5.1957 -3.3664,-3.9841 -8.59027,-6.39872 -13.56467,-10.01094 -4.55371,-0.0427 -9.69954,-1.48353 -13.54539,0.14521 -9.86774,4.17904 -18.70754,5.54202 -28.25261,-1.06043 -5.71813,-3.9553 -9.06368,-2.85708 -14.18624,2.23734 -4.60189,4.57661 -8.66673,9.70674 -13.39334,14.13969 -3.09341,2.90125 -6.65652,6.33029 -10.51761,7.16145 -7.13346,1.5356 -10.30276,6.64838 -13.48249,11.87264 -3.07686,5.05522 -5.6492,10.45816 -8.03118,15.88904 -15.47037,35.27247 -15.0067,70.34584 2.98276,104.47426 12.96464,24.5957 33.58148,39.98379 61.5475,46.50046 6.25621,0.5043 12.51242,1.00857 18.76863,1.51284 0.0408,0.35971 0.0815,0.71942 0.12229,1.07913 -5.76124,1.33536 -11.52246,2.67072 -17.19851,3.98636 11.49166,9.55216 55.09235,-5.86621 57.513,-26.21231 -6.03775,2.25043 -11.74136,5.94571 -19.47912,3.93006 1.37045,-1.26569 1.87268,-1.94019 2.54242,-2.31723 16.43326,-9.253 29.29083,-22.27536 40.14203,-37.53013 1.03625,-1.45678 3.69925,-2.38195 5.64932,-2.45715 9.54565,-0.36795 16.66321,-4.58383 20.85562,-13.06012 4.04404,-8.17633 2.6665,-15.82022 -3.59741,-22.54144 -0.71564,-0.76788 -1.18012,-1.76981 -2.0799,-3.15356 2.33341,0.43096 4.0084,0.74035 6.90415,1.2752 -1.06787,-2.74441 -1.78607,-4.59018 -2.63947,-7.13598 -1.96866,-3.19281 -3.93728,-6.38559 -6.09518,-10.2222 M -65.11499,7.43463 c 1.11104,3.21391 2.22209,6.42781 3.81629,11.0393 4.20039,-7.06869 7.66578,-12.90045 10.99552,-18.50395 -2.68286,-2.14383 -5.09591,-3.89859 -7.30592,-5.87982 -3.09807,-2.77741 -5.44878,-1.65767 -6.35806,1.68149 -0.94473,3.46936 -0.88597,7.21197 -1.14783,11.66298 z"
         id="path6"
         style="display:inline"
         sodipodi:nodetypes="cssssccssscccsscsscscsscsscsscscsccssccsssscscscssscssssssscccsssscccscccccccscccssssssscsssssscscccccccscsscccccccssc" />
    </g>
  </g>
</svg>
